<?xml version="1.0" encoding="UTF-8"?>
<svg version="1.1" xmlns="http://www.w3.org/2000/svg" width="150" height="150">
<path d="M0 0 C49.5 0 99 0 150 0 C150 49.5 150 99 150 150 C100.5 150 51 150 0 150 C0 100.5 0 51 0 0 Z " fill="#A1A2AC" transform="translate(0,0)"/>
<path d="M0 0 C0.83402344 0.09667969 1.66804688 0.19335938 2.52734375 0.29296875 C12.69057241 2.37572593 21.18185242 9.86672693 27.27734375 17.96484375 C34.56481092 29.58970933 37.28092138 42.18137198 38.91796875 55.6015625 C39.03785156 56.51421875 39.15773438 57.426875 39.28125 58.3671875 C39.38373047 59.19718262 39.48621094 60.02717773 39.59179688 60.88232422 C39.74712891 61.51928223 39.90246094 62.15624023 40.0625 62.8125 C40.7225 63.1425 41.3825 63.4725 42.0625 63.8125 C42.66015625 65.8515625 42.66015625 65.8515625 43.125 68.4375 C43.29 69.34113281 43.455 70.24476562 43.625 71.17578125 C44.15688288 74.38132539 44.62066105 77.59338764 45.0625 80.8125 C45.67591544 84.79970035 46.95103492 88.31347494 48.44140625 92.04296875 C49.0625 93.8125 49.0625 93.8125 49.0625 95.8125 C52.0325 95.8125 55.0025 95.8125 58.0625 95.8125 C57.7325 96.4725 57.4025 97.1325 57.0625 97.8125 C55.7425 97.8125 54.4225 97.8125 53.0625 97.8125 C53.0625 99.1325 53.0625 100.4525 53.0625 101.8125 C51.0625 103.5625 51.0625 103.5625 49.0625 104.8125 C49.0625 103.1625 49.0625 101.5125 49.0625 99.8125 C47.0462767 100.52813266 47.0462767 100.52813266 45.0625 101.8125 C44.25721111 103.86250871 44.25721111 103.86250871 44.0625 105.8125 C45.5475 106.8025 45.5475 106.8025 47.0625 107.8125 C46.0725 108.3075 46.0725 108.3075 45.0625 108.8125 C45.0625 109.4725 45.0625 110.1325 45.0625 110.8125 C45.7225 111.1425 46.3825 111.4725 47.0625 111.8125 C47.0625 112.8025 47.0625 113.7925 47.0625 114.8125 C46.4025 114.8125 45.7425 114.8125 45.0625 114.8125 C44.98902344 115.73869141 44.98902344 115.73869141 44.9140625 116.68359375 C44.39641578 122.54728159 43.44667877 128.09122775 42.0625 133.8125 C41.77375 133.214375 41.485 132.61625 41.1875 132 C40.01507974 129.61922208 40.01507974 129.61922208 38.0625 126.8125 C36.4125 127.1425 34.7625 127.4725 33.0625 127.8125 C32.7325 131.1125 32.4025 134.4125 32.0625 137.8125 C4.3425 137.8125 -23.3775 137.8125 -51.9375 137.8125 C-51.9375 124.42678571 -51.9375 124.42678571 -47.9375 117.8125 C-45.58951944 113.38377079 -45.58951944 113.38377079 -45.1875 108.5 C-45.74007649 107.25670289 -46.32903826 106.02942349 -46.9375 104.8125 C-46.97772391 102.4795134 -46.98070247 100.14543334 -46.9375 97.8125 C-46.6075 97.8125 -46.2775 97.8125 -45.9375 97.8125 C-45.2775 100.4525 -44.6175 103.0925 -43.9375 105.8125 C-42.6175 105.8125 -41.2975 105.8125 -39.9375 105.8125 C-39.82792969 105.23242188 -39.71835937 104.65234375 -39.60546875 104.0546875 C-38.6231635 99.21503723 -37.38928089 95.15883884 -34.9375 90.8125 C-35.5975 90.1525 -36.2575 89.4925 -36.9375 88.8125 C-36.15375 88.4 -35.37 87.9875 -34.5625 87.5625 C-31.81184558 85.72873039 -31.22860023 84.73255847 -29.9375 81.8125 C-31.3296875 80.4821875 -31.3296875 80.4821875 -32.75 79.125 C-40.53767244 69.84607114 -39.77421527 55.62299163 -39.14453125 44.12451172 C-37.91688939 30.41487916 -30.64738767 17.87989703 -20.6875 8.75 C-17.63042602 6.59615242 -14.57688705 5.2353374 -11.12109375 3.83984375 C-8.8613501 2.887776 -8.8613501 2.887776 -6.96875 1.1796875 C-4.368526 -0.57046327 -3.06993988 -0.40207225 0 0 Z " fill="#212426" transform="translate(67.9375,12.1875)"/>
<path d="M0 0 C13.2522119 6.11324945 20.92883009 16.64930976 26.296875 29.76953125 C29.18678908 37.76741449 30.35479214 45.55764013 31.37890625 53.953125 C31.49878906 54.86578125 31.61867188 55.7784375 31.7421875 56.71875 C31.84466797 57.54874512 31.94714844 58.37874023 32.05273438 59.23388672 C32.20806641 59.87084473 32.36339844 60.50780273 32.5234375 61.1640625 C33.1834375 61.4940625 33.8434375 61.8240625 34.5234375 62.1640625 C35.12109375 64.203125 35.12109375 64.203125 35.5859375 66.7890625 C35.7509375 67.69269531 35.9159375 68.59632812 36.0859375 69.52734375 C36.61782038 72.73288789 37.08159855 75.94495014 37.5234375 79.1640625 C38.13685294 83.15126285 39.41197242 86.66503744 40.90234375 90.39453125 C41.5234375 92.1640625 41.5234375 92.1640625 41.5234375 94.1640625 C44.4934375 94.1640625 47.4634375 94.1640625 50.5234375 94.1640625 C50.1934375 94.8240625 49.8634375 95.4840625 49.5234375 96.1640625 C48.2034375 96.1640625 46.8834375 96.1640625 45.5234375 96.1640625 C45.5234375 97.4840625 45.5234375 98.8040625 45.5234375 100.1640625 C43.5234375 101.9140625 43.5234375 101.9140625 41.5234375 103.1640625 C41.5234375 101.5140625 41.5234375 99.8640625 41.5234375 98.1640625 C39.5072142 98.87969516 39.5072142 98.87969516 37.5234375 100.1640625 C36.71814861 102.21407121 36.71814861 102.21407121 36.5234375 104.1640625 C38.0084375 105.1540625 38.0084375 105.1540625 39.5234375 106.1640625 C38.5334375 106.6590625 38.5334375 106.6590625 37.5234375 107.1640625 C37.5234375 107.8240625 37.5234375 108.4840625 37.5234375 109.1640625 C38.1834375 109.4940625 38.8434375 109.8240625 39.5234375 110.1640625 C39.5234375 111.1540625 39.5234375 112.1440625 39.5234375 113.1640625 C38.8634375 113.1640625 38.2034375 113.1640625 37.5234375 113.1640625 C37.44996094 114.09025391 37.44996094 114.09025391 37.375 115.03515625 C36.85735328 120.89884409 35.90761627 126.44279025 34.5234375 132.1640625 C34.2346875 131.5659375 33.9459375 130.9678125 33.6484375 130.3515625 C32.47601724 127.97078458 32.47601724 127.97078458 30.5234375 125.1640625 C28.0484375 125.6590625 28.0484375 125.6590625 25.5234375 126.1640625 C25.1934375 129.4640625 24.8634375 132.7640625 24.5234375 136.1640625 C22.8734375 136.1640625 21.2234375 136.1640625 19.5234375 136.1640625 C21.10828889 121.37211619 21.10828889 121.37211619 25.0859375 117.9765625 C29.02542571 113.43099919 28.42957398 107.9921337 28.5234375 102.1640625 C27.8634375 102.1640625 27.2034375 102.1640625 26.5234375 102.1640625 C26.44184176 98.00267987 26.54095226 94.2168141 27.5234375 90.1640625 C29.5034375 90.4940625 31.4834375 90.8240625 33.5234375 91.1640625 C33.0490625 90.0709375 32.5746875 88.9778125 32.0859375 87.8515625 C31.12155941 85.62929995 30.29176922 83.46905765 29.5234375 81.1640625 C30.1834375 81.1640625 30.8434375 81.1640625 31.5234375 81.1640625 C30.5334375 77.8640625 29.5434375 74.5640625 28.5234375 71.1640625 C28.8534375 71.1640625 29.1834375 71.1640625 29.5234375 71.1640625 C29.8534375 69.5140625 30.1834375 67.8640625 30.5234375 66.1640625 C29.8634375 66.1640625 29.2034375 66.1640625 28.5234375 66.1640625 C27.38475595 64.33527093 26.25247162 62.50225806 25.1484375 60.65234375 C22.60631417 56.7597174 19.58338122 53.28558138 16.609375 49.71875 C14.35662778 46.95976745 12.40873654 44.18054096 10.5234375 41.1640625 C9.8634375 40.1740625 9.2034375 39.1840625 8.5234375 38.1640625 C8.18490165 44.50847501 8.48896861 48.47443334 11.5234375 54.1640625 C12.05632518 58.42716397 11.85482063 60.53811659 9.8359375 64.3515625 C4.46332284 70.88582357 -1.16353717 72.98122512 -9.4765625 74.1640625 C-12.3515625 73.73828125 -12.3515625 73.73828125 -14.4765625 73.1640625 C-14.4765625 71.8440625 -14.4765625 70.5240625 -14.4765625 69.1640625 C-11.26227679 66.1640625 -11.26227679 66.1640625 -8.4765625 66.1640625 C-8.4765625 65.5040625 -8.4765625 64.8440625 -8.4765625 64.1640625 C-11.1165625 64.4940625 -13.7565625 64.8240625 -16.4765625 65.1640625 C-15.9815625 63.6790625 -15.9815625 63.6790625 -15.4765625 62.1640625 C-11.71748609 60.54082496 -8.55570037 59.92411321 -4.4765625 60.1640625 C-4.4765625 59.5040625 -4.4765625 58.8440625 -4.4765625 58.1640625 C-6.58152214 58.22411841 -8.68567685 58.31291609 -10.7890625 58.4140625 C-11.96082031 58.46046875 -13.13257813 58.506875 -14.33984375 58.5546875 C-17.57134932 58.86460399 -17.57134932 58.86460399 -19.39453125 61.2109375 C-19.75160156 61.85546875 -20.10867187 62.5 -20.4765625 63.1640625 C-22.1265625 62.8340625 -23.7765625 62.5040625 -25.4765625 62.1640625 C-25.4765625 60.8440625 -25.4765625 59.5240625 -25.4765625 58.1640625 C-26.1365625 58.1640625 -26.7965625 58.1640625 -27.4765625 58.1640625 C-28.94776184 55.22166382 -29.47913795 53.2954106 -29.4140625 49.9765625 C-28.4765625 47.1640625 -28.4765625 47.1640625 -26.1015625 45.7890625 C-23.4765625 45.1640625 -23.4765625 45.1640625 -20.4765625 45.1640625 C-21.47849687 41.37102525 -22.28680477 38.44869909 -24.4765625 35.1640625 C-26.91349561 34.79990203 -26.91349561 34.79990203 -29.6015625 34.9765625 C-30.51164062 35.00363281 -31.42171875 35.03070313 -32.359375 35.05859375 C-33.05804688 35.09339844 -33.75671875 35.12820312 -34.4765625 35.1640625 C-35.09205108 25.5556019 -35.09205108 25.5556019 -33.0390625 20.9140625 C-24.41561269 11.65962856 -24.41561269 11.65962856 -19.13671875 10.76953125 C-13.55922722 11.12229567 -9.50826027 13.39553038 -5.4765625 17.1640625 C-3.2265625 19.7890625 -3.2265625 19.7890625 -1.4765625 22.1640625 C-0.48862392 23.17598017 0.50929538 24.17840751 1.5234375 25.1640625 C-1.16976074 19.57898746 -3.88130211 14.2240586 -7.4765625 9.1640625 C-7.1465625 8.5040625 -6.8165625 7.8440625 -6.4765625 7.1640625 C-8.07997805 6.82713465 -9.68432805 6.49465157 -11.2890625 6.1640625 C-12.62904297 5.885625 -12.62904297 5.885625 -13.99609375 5.6015625 C-16.54916943 5.07721407 -16.54916943 5.07721407 -19.4765625 5.1640625 C-18.4765625 2.1640625 -18.4765625 2.1640625 -16.0390625 -0.0859375 C-10.59306279 -2.76116543 -5.65243045 -1.90791817 0 0 Z " fill="#403530" transform="translate(75.4765625,13.8359375)"/>
<path d="M0 0 C3.83283857 1.10726448 6.42965084 1.91414906 9 5 C9.9140625 7.0078125 9.9140625 7.0078125 10.625 9.125 C11.42522693 11.80017942 11.42522693 11.80017942 13 14 C12.90874293 17.27156584 12.73712995 20.53351829 12.546875 23.80078125 C12.68730217 27.1759803 12.68730217 27.1759803 15.40234375 29.28515625 C16.25957031 29.85105469 17.11679688 30.41695312 18 31 C21 34.51724138 21 34.51724138 21 37 C21.66 37 22.32 37 23 37 C27.09624798 47.14119646 27.73983793 55.65854137 29 67 C12.83 67 -3.34 67 -20 67 C-19.67 63.7 -19.34 60.4 -19 57 C-16.625 55.9375 -16.625 55.9375 -14 55 C-13.34 55.33 -12.68 55.66 -12 56 C-11.67 56.99 -11.34 57.98 -11 59 C-9.24265549 54.02638346 -7.67415387 49.2584002 -7 44 C-6.34 44 -5.68 44 -5 44 C-5 43.01 -5 42.02 -5 41 C-5.99 40.67 -6.98 40.34 -8 40 C-8 38.68 -8 37.36 -8 36 C-8.495 34.515 -8.495 34.515 -9 33 C-7.75 30.8125 -7.75 30.8125 -6 29 C-5.01 29 -4.02 29 -3 29 C-2.67 29.99 -2.34 30.98 -2 32 C-1.01 31.67 -0.02 31.34 1 31 C1 29.68 1 28.36 1 27 C2.32 26.67 3.64 26.34 5 26 C2.69 25.67 0.38 25.34 -2 25 C-1.690625 23.9790625 -1.690625 23.9790625 -1.375 22.9375 C-0.89936171 19.21166669 -1.82330851 16.53007446 -3 13 C-1.8553125 12.5978125 -1.8553125 12.5978125 -0.6875 12.1875 C1.91245703 11.03868178 3.38885423 10.32721056 5 8 C5.00478037 5.8522367 5.00478037 5.8522367 4 4 C3.01 3.67 2.02 3.34 1 3 C0.67 2.01 0.34 1.02 0 0 Z " fill="#D0BCBD" transform="translate(120,83)"/>
<path d="M0 0 C5.42663994 0.62615076 9.54803352 3.56666062 13.25 7.5 C14.25 9.375 14.25 9.375 14.25 12.375 C13.62351562 12.62894531 12.99703125 12.88289063 12.3515625 13.14453125 C11.53429687 13.48871094 10.71703125 13.83289062 9.875 14.1875 C9.06289062 14.52394531 8.25078125 14.86039063 7.4140625 15.20703125 C4.94852542 16.31939082 4.94852542 16.31939082 3.25 19.375 C2.59 19.375 1.93 19.375 1.25 19.375 C1.25 20.035 1.25 20.695 1.25 21.375 C2.24 21.705 3.23 22.035 4.25 22.375 C4.25 23.695 4.25 25.015 4.25 26.375 C12.2212099 26.82873277 12.2212099 26.82873277 19.25 23.375 C22.25 23.375 22.25 23.375 23.90234375 25 C25.56070605 27.92256312 25.68291364 30.03083578 25.8125 33.375 C25.97505517 37.31573149 26.31780612 39.93749228 28.25 43.375 C28.93933657 46.66849695 28.61159597 48.6542763 27.10546875 51.65625 C23.05808491 57.72240194 19.16615654 59.64978265 12.1171875 61.1328125 C9.23973999 61.37586665 7.03171099 61.09844865 4.25 60.375 C4.25 59.055 4.25 57.735 4.25 56.375 C7.46428571 53.375 7.46428571 53.375 10.25 53.375 C10.25 52.715 10.25 52.055 10.25 51.375 C7.61 51.705 4.97 52.035 2.25 52.375 C2.58 51.385 2.91 50.395 3.25 49.375 C7.00907641 47.75176246 10.17086213 47.13505071 14.25 47.375 C14.25 46.715 14.25 46.055 14.25 45.375 C12.14504036 45.43505591 10.04088565 45.52385359 7.9375 45.625 C6.76574219 45.67140625 5.59398437 45.7178125 4.38671875 45.765625 C1.15521318 46.07554149 1.15521318 46.07554149 -0.66796875 48.421875 C-1.02503906 49.06640625 -1.38210937 49.7109375 -1.75 50.375 C-3.4 50.045 -5.05 49.715 -6.75 49.375 C-6.75 48.055 -6.75 46.735 -6.75 45.375 C-7.41 45.375 -8.07 45.375 -8.75 45.375 C-10.22119934 42.43260132 -10.75257545 40.5063481 -10.6875 37.1875 C-9.75 34.375 -9.75 34.375 -7.375 33 C-4.75 32.375 -4.75 32.375 -1.75 32.375 C-2.75193437 28.58196275 -3.56024227 25.65963659 -5.75 22.375 C-8.18693311 22.01083953 -8.18693311 22.01083953 -10.875 22.1875 C-11.78507812 22.21457031 -12.69515625 22.24164063 -13.6328125 22.26953125 C-14.33148438 22.30433594 -15.03015625 22.33914062 -15.75 22.375 C-16.37329486 12.64467471 -16.37329486 12.64467471 -14.0625 7.9375 C-9.59382234 2.98572206 -6.48214619 0.88392903 0 0 Z " fill="#9A634F" transform="translate(56.75,26.625)"/>
<path d="M0 0 C0.66 0 1.32 0 2 0 C1.67 1.65 1.34 3.3 1 5 C1.66 5 2.32 5 3 5 C5.71836779 7.61381519 5.99552747 8.91054943 6.1875 12.75 C6.0946875 14.35875 6.0946875 14.35875 6 16 C5.01 16 4.02 16 3 16 C2.01 18.64 1.02 21.28 0 24 C0.66 24 1.32 24 2 24 C2 24.99 2 25.98 2 27 C5.26360025 26.63737775 6.12943096 25.86733326 8.5 23.4375 C11 21 11 21 15 21 C14.67 22.32 14.34 23.64 14 25 C13.34 25 12.68 25 12 25 C11.7215625 26.485 11.7215625 26.485 11.4375 28 C9.92442796 33.03505391 7.25440549 36.88509448 3 40 C-1.19561952 40.95825206 -5.16192903 40.76389281 -9.4375 40.5 C-11.1071582 40.44585937 -11.1071582 40.44585937 -12.81054688 40.390625 C-15.54185873 40.29684605 -18.2713853 40.15336476 -21 40 C-20.67 36.7 -20.34 33.4 -20 30 C-17.625 28.9375 -17.625 28.9375 -15 28 C-14.34 28.33 -13.68 28.66 -13 29 C-12.67 29.99 -12.34 30.98 -12 32 C-10.24265549 27.02638346 -8.67415387 22.2584002 -8 17 C-7.34 17 -6.68 17 -6 17 C-6 16.01 -6 15.02 -6 14 C-6.99 13.67 -7.98 13.34 -9 13 C-9 11.68 -9 10.36 -9 9 C-9.33 8.01 -9.66 7.02 -10 6 C-8.75 3.8125 -8.75 3.8125 -7 2 C-6.01 2 -5.02 2 -4 2 C-3.67 2.99 -3.34 3.98 -3 5 C-2.01 4.67 -1.02 4.34 0 4 C0 2.68 0 1.36 0 0 Z " fill="#C6A7A4" transform="translate(121,110)"/>
<path d="M0 0 C1.74991334 -0.02715383 3.49994945 -0.04646551 5.25 -0.0625 C6.71179688 -0.07990234 6.71179688 -0.07990234 8.203125 -0.09765625 C10.65758678 -0.01195577 12.66168914 0.29293934 15 1 C15 1.66 15 2.32 15 3 C15.66 3.33 16.32 3.66 17 4 C18.72699497 5.62830955 20.36279442 7.28483225 22 9 C22.52851562 9.51046875 23.05703125 10.0209375 23.6015625 10.546875 C32.32972516 19.55402003 37.01366142 31.1700939 39.625 43.25 C39.80184326 44.05993408 39.97868652 44.86986816 40.16088867 45.7043457 C41.23590745 51.34268521 41.23590745 51.34268521 40.0859375 54.546875 C39.72757813 55.02640625 39.36921875 55.5059375 39 56 C33.42857143 49.71428571 33.42857143 49.71428571 33 46 C32.401875 45.9175 31.80375 45.835 31.1875 45.75 C28.25494852 44.74455378 27.54971552 43.67678136 26 41 C25.26739841 38.68652128 24.588562 36.354248 24 34 C23.34 34 22.68 34 22 34 C20.51085663 29.34525626 19.10393057 24.93537516 18.5625 20.0625 C18.32518015 16.90482532 18.32518015 16.90482532 16 15.375 C15.34 14.92125 14.68 14.4675 14 14 C13.25 11.3125 13.25 11.3125 13 9 C12.34 9 11.68 9 11 9 C10.2575 8.236875 9.515 7.47375 8.75 6.6875 C5.97304795 3.97366049 3.52594801 2.55797703 0 1 C0 0.67 0 0.34 0 0 Z " fill="#34312E" transform="translate(62,15)"/>
<path d="M0 0 C0.84820312 0.10957031 1.69640625 0.21914062 2.5703125 0.33203125 C3.41335937 0.42871094 4.25640625 0.52539062 5.125 0.625 C15.30455419 2.68256946 23.80988593 10.1924091 29.91015625 18.296875 C37.19762342 29.92174058 39.91373388 42.51340323 41.55078125 55.93359375 C41.67066406 56.84625 41.79054687 57.75890625 41.9140625 58.69921875 C42.01654297 59.52921387 42.11902344 60.35920898 42.22460938 61.21435547 C42.37994141 61.85131348 42.53527344 62.48827148 42.6953125 63.14453125 C43.6853125 63.63953125 43.6853125 63.63953125 44.6953125 64.14453125 C45.29296875 66.18359375 45.29296875 66.18359375 45.7578125 68.76953125 C45.9228125 69.67316406 46.0878125 70.57679687 46.2578125 71.5078125 C46.78969538 74.71335664 47.25347355 77.92541889 47.6953125 81.14453125 C48.33760095 84.76619306 48.33760095 84.76619306 49.6953125 88.14453125 C48.3753125 87.81453125 47.0553125 87.48453125 45.6953125 87.14453125 C44.7053125 82.19453125 44.7053125 82.19453125 43.6953125 77.14453125 C43.3653125 77.14453125 43.0353125 77.14453125 42.6953125 77.14453125 C42.2003125 72.68953125 42.2003125 72.68953125 41.6953125 68.14453125 C40.7053125 68.14453125 39.7153125 68.14453125 38.6953125 68.14453125 C37.52876306 66.32608653 36.37519012 64.49812882 35.28515625 62.6328125 C33.43283774 59.73372922 31.33450614 57.16228668 29.1328125 54.51953125 C20.33987207 43.91240678 20.33987207 43.91240678 19.6953125 37.14453125 C21.59024148 39.49063379 22.88296691 41.56063452 24.1328125 44.33203125 C25.35656286 47.30300564 25.35656286 47.30300564 27.7578125 47.76953125 C28.716875 47.95515625 28.716875 47.95515625 29.6953125 48.14453125 C30.6953125 49.83203125 30.6953125 49.83203125 31.6953125 52.14453125 C33.01073626 54.15635582 34.3412193 56.15852788 35.6953125 58.14453125 C38.61721979 48.90994214 32.97551689 35.07992811 28.88549805 26.71533203 C25.41435825 20.19564067 21.27972794 14.98983288 15.6953125 10.14453125 C13.4609375 8.0625 13.4609375 8.0625 11.6953125 6.14453125 C11.6953125 5.48453125 11.6953125 4.82453125 11.6953125 4.14453125 C6.0853125 3.81453125 0.4753125 3.48453125 -5.3046875 3.14453125 C-2.3046875 0.14453125 -2.3046875 0.14453125 0 0 Z " fill="#433832" transform="translate(65.3046875,11.85546875)"/>
<path d="M0 0 C0.66 0.66 1.32 1.32 2 2 C1.34 3.03125 0.68 4.0625 0 5.125 C-1.97924259 8.56776705 -2.3643644 10.99199156 -2 15 C-2 15.99 -2 16.98 -2 18 C-1.67 18.99 -1.34 19.98 -1 21 C-0.34 21 0.32 21 1 21 C1.33 18.69 1.66 16.38 2 14 C2.33 14 2.66 14 3 14 C2.91321237 16.29239061 2.80504727 18.5839807 2.6875 20.875 C2.62949219 22.15117188 2.57148437 23.42734375 2.51171875 24.7421875 C2.34285156 25.81726563 2.17398438 26.89234375 2 28 C1.01 28.66 0.02 29.32 -1 30 C-1.33 28.68 -1.66 27.36 -2 26 C-2.27972656 26.71929687 -2.55945313 27.43859375 -2.84765625 28.1796875 C-3.95298987 30.88494471 -5.15007318 33.50201824 -6.4375 36.125 C-6.84871094 36.97320312 -7.25992187 37.82140625 -7.68359375 38.6953125 C-9 41 -9 41 -10.6171875 42.54296875 C-12.39241315 44.41347488 -12.47941648 45.64888107 -12.6875 48.1875 C-12.790625 49.445625 -12.89375 50.70375 -13 52 C-15.31 52 -17.62 52 -20 52 C-20.47365834 44.1056944 -20.09340342 38.76873493 -16 32 C-13.65201944 27.57127079 -13.65201944 27.57127079 -13.25 22.6875 C-13.80257649 21.44420289 -14.39153826 20.21692349 -15 19 C-15.04022391 16.6670134 -15.04320247 14.33293334 -15 12 C-14.67 12 -14.34 12 -14 12 C-13.34 14.64 -12.68 17.28 -12 20 C-10.68 20 -9.36 20 -8 20 C-7.89042969 19.41992188 -7.78085937 18.83984375 -7.66796875 18.2421875 C-6.6856635 13.40253723 -5.45178089 9.34633884 -3 5 C-3.66 4.34 -4.32 3.68 -5 3 C-3.35 2.01 -1.7 1.02 0 0 Z " fill="#322F2F" transform="translate(36,98)"/>
<path d="M0 0 C2.0625 0.4375 2.0625 0.4375 4 1 C3.54277504 6.30380952 2.99934142 10.44544451 0 15 C-2.125 15.75 -2.125 15.75 -4 16 C-5.43088528 18.86177057 -4.59991697 20.93375773 -4 24 C-3.01 23.67 -2.02 23.34 -1 23 C-0.26676204 20.98491642 -0.26676204 20.98491642 0 19 C0.99 19.33 1.98 19.66 3 20 C4.51403812 24.84492197 3.36602172 28.2591011 2 33 C0.515 32.505 0.515 32.505 -1 32 C-1 31.34 -1 30.68 -1 30 C-4.00259517 29.66781808 -4.00259517 29.66781808 -5.6875 31.5 C-6.120625 31.995 -6.55375 32.49 -7 33 C-11.875 28.375 -11.875 28.375 -13 25 C-13.02954379 22.15957588 -12.93409401 19.33491152 -12.83984375 16.49609375 C-12.73541217 13.82433522 -12.73541217 13.82433522 -15 12 C-15.8563027 9.36766208 -16.38929927 6.70453182 -17 4 C-16.34 4 -15.68 4 -15 4 C-15 3.34 -15 2.68 -15 2 C-11.51247676 1.30249535 -8.23321127 0.94889065 -4.6875 1 C-3.470625 1 -2.25375 1 -1 1 C-0.67 0.67 -0.34 0.34 0 0 Z " fill="#ADADB5" transform="translate(145,83)"/>
<path d="M0 0 C2.475 0.99 2.475 0.99 5 2 C5 2.99 5 3.98 5 5 C6.62171239 5.38897161 8.24754925 5.76078298 9.875 6.125 C11.23238281 6.43824219 11.23238281 6.43824219 12.6171875 6.7578125 C13.79667969 6.87769531 13.79667969 6.87769531 15 7 C15.66 6.34 16.32 5.68 17 5 C17.99 5 18.98 5 20 5 C20 4.34 20 3.68 20 3 C20.99 3 21.98 3 23 3 C23.97110954 7.61277031 24.05424791 11.94830262 23.9375 16.6328125 C23.91128333 18.99290357 23.91128333 18.99290357 24.5625 21.1796875 C25 23 25 23 24 25 C22.35 25 20.7 25 19 25 C18.67 24.01 18.34 23.02 18 22 C16.081875 22.0309375 16.081875 22.0309375 14.125 22.0625 C10.25 22.125 10.25 22.125 8 21 C8 20.34 8 19.68 8 19 C8.66 19 9.32 19 10 19 C9.34 18.01 8.68 17.02 8 16 C5.36 16 2.72 16 0 16 C0 10.72 0 5.44 0 0 Z " fill="#B78575" transform="translate(55,49)"/>
<path d="M0 0 C2.35810627 1.87168076 3.38731484 3.36594757 5 6 C5 6.99 5 7.98 5 9 C3.56570999 9.67354499 2.12742943 10.33859701 0.6875 11 C-0.11300781 11.37125 -0.91351563 11.7425 -1.73828125 12.125 C-4 13 -4 13 -7 13 C-7 13.66 -7 14.32 -7 15 C-11.64849515 17.3992233 -15.91086074 17.19957409 -21 17 C-20.85866501 15.22880197 -20.71176792 13.45804713 -20.5625 11.6875 C-20.48128906 10.70136719 -20.40007813 9.71523438 -20.31640625 8.69921875 C-19.72005155 3.61179779 -19.72005155 3.61179779 -17.28515625 1.54296875 C-11.21703381 -2.15762613 -6.62439091 -2.97751368 0 0 Z " fill="#A3796C" transform="translate(66,30)"/>
<path d="M0 0 C2.79872437 2.52788007 4.45773019 4.20411134 5 8 C5.66 8 6.32 8 7 8 C7.04254356 9.99954746 7.04080783 12.00041636 7 14 C6.67 14.33 6.34 14.66 6 15 C6.495 15.86625 6.495 15.86625 7 16.75 C8 19 8 19 8 23 C7.34 23 6.68 23 6 23 C6.66 23.9075 7.32 24.815 8 25.75 C10 29 10 29 10 33 C8.02 32.67 6.04 32.34 4 32 C3.67 35.96 3.34 39.92 3 44 C3.66 44 4.32 44 5 44 C5.33 45.65 5.66 47.3 6 49 C3 48 3 48 2 46.125 C1.505 45.073125 1.505 45.073125 1 44 C0.46375 43.484375 -0.0725 42.96875 -0.625 42.4375 C-2 41 -2 41 -2 38 C-3.65 38.66 -5.3 39.32 -7 40 C-6.34 39.01 -5.68 38.02 -5 37 C-4.34 37 -3.68 37 -3 37 C-2.67 34.69 -2.34 32.38 -2 30 C-0.35 29.67 1.3 29.34 3 29 C3 29.66 3 30.32 3 31 C3.99 30.01 4.98 29.02 6 28 C5.61328125 27.2265625 5.2265625 26.453125 4.828125 25.65625 C3.7513013 23.50260259 2.67719809 21.34759332 1.60546875 19.19140625 C0.65021313 17.29251613 -0.32069786 15.4011748 -1.32421875 13.52734375 C-2.28662942 11.7207132 -3.15295151 9.86350667 -4 8 C-3.67 7.01 -3.34 6.02 -3 5 C-2.01 6.485 -2.01 6.485 -1 8 C-1.020625 7.05125 -1.04125 6.1025 -1.0625 5.125 C-1 2 -1 2 0 0 Z " fill="#312F2D" transform="translate(99,72)"/>
<path d="M0 0 C0.33 0.66 0.66 1.32 1 2 C-0.85625 2.1546875 -0.85625 2.1546875 -2.75 2.3125 C-6.327552 2.7423119 -8.26182593 3.57776909 -11 6 C-11.66 6 -12.32 6 -13 6 C-12.67 7.65 -12.34 9.3 -12 11 C-12.66 11 -13.32 11 -14 11 C-14.33 13.97 -14.66 16.94 -15 20 C-7.9575127 19.27671091 -7.9575127 19.27671091 -1 18 C-1 17.34 -1 16.68 -1 16 C-0.34 16.33 0.32 16.66 1 17 C0.67 17.66 0.34 18.32 0 19 C-0.66 19 -1.32 19 -2 19 C-2 19.66 -2 20.32 -2 21 C-1.01 21.33 -0.02 21.66 1 22 C1 23.32 1 24.64 1 26 C3.97 26.33 6.94 26.66 10 27 C10 27.33 10 27.66 10 28 C2.25 28.125 2.25 28.125 0 27 C-0.33 26.01 -0.66 25.02 -1 24 C-1.99 23.67 -2.98 23.34 -4 23 C-3.98839844 23.60585938 -3.97679687 24.21171875 -3.96484375 24.8359375 C-3.90645127 30.25809612 -4.17962998 35.49270959 -4.87890625 40.87109375 C-5.14231498 43.189042 -5.14231498 43.189042 -4 46 C-4.33 46.66 -4.66 47.32 -5 48 C-7.55598522 47.63331858 -8.69425918 47.38262302 -10.3359375 45.328125 C-13.140625 39.71875 -13.140625 39.71875 -12.4375 36.125 C-11 34 -11 34 -8 32 C-7.01 32 -6.02 32 -5 32 C-6.00193437 28.20696275 -6.81024227 25.28463659 -9 22 C-11.43693311 21.63583953 -11.43693311 21.63583953 -14.125 21.8125 C-15.03507812 21.83957031 -15.94515625 21.86664063 -16.8828125 21.89453125 C-17.58148438 21.92933594 -18.28015625 21.96414062 -19 22 C-19.62329486 12.26967471 -19.62329486 12.26967471 -17.3125 7.5625 C-11.73605874 1.38320023 -8.18164383 -0.18594645 0 0 Z " fill="#8A6151" transform="translate(60,27)"/>
<path d="M0 0 C0.66 1.32 1.32 2.64 2 4 C3.010625 3.773125 4.02125 3.54625 5.0625 3.3125 C9.75624656 2.93998043 12.01798859 3.50148304 16 6 C17.375 9.4375 17.375 9.4375 18 13 C18.22558594 13.62003906 18.45117188 14.24007812 18.68359375 14.87890625 C19.14231791 17.95405707 18.03571445 19.73521093 16.6875 22.5 C16.01267578 23.90765625 16.01267578 23.90765625 15.32421875 25.34375 C14.54767518 26.90141852 13.74207952 28.44622921 12.87109375 29.953125 C11.69389969 32.71926711 11.57006858 35.25894837 11.375 38.25 C11.30023438 39.32765625 11.22546875 40.4053125 11.1484375 41.515625 C11.09945313 42.33546875 11.05046875 43.1553125 11 44 C10.01 44 9.02 44 8 44 C8 42.02 8 40.04 8 38 C8.66 38 9.32 38 10 38 C9.835 37.0925 9.67 36.185 9.5 35.25 C9 32 9 32 9 28 C9.66 28 10.32 28 11 28 C10.96519531 27.39414063 10.93039062 26.78828125 10.89453125 26.1640625 C10.68175616 19.57816697 11.7878232 14.18882796 14 8 C13.01 10.31 12.02 12.62 11 15 C10.443125 14.525625 9.88625 14.05125 9.3125 13.5625 C7.09598847 11.84546576 7.09598847 11.84546576 4.4375 11.5 C1.62087358 10.92223048 0.9317493 10.01955609 -1 8 C-1.99 8 -2.98 8 -4 8 C-3.50168276 4.31245243 -2.89932357 2.39509338 0 0 Z M-1 9 C-0.01 9.495 -0.01 9.495 1 10 C0.01 10.495 0.01 10.495 -1 11 C-1 10.34 -1 9.68 -1 9 Z " fill="#A1A4AF" transform="translate(5,106)"/>
<path d="M0 0 C3.83283857 1.10726448 6.42965084 1.91414906 9 5 C9.9140625 7.0078125 9.9140625 7.0078125 10.625 9.125 C11.42522693 11.80017942 11.42522693 11.80017942 13 14 C13.09851171 15.83115883 13.12972629 17.66619933 13.125 19.5 C13.12886719 21.00046875 13.12886719 21.00046875 13.1328125 22.53125 C13 25 13 25 12 26 C9.64305046 25.90968426 7.28846418 25.75311872 4.9375 25.5625 C3.64714844 25.46066406 2.35679688 25.35882813 1.02734375 25.25390625 C-0.47119141 25.12822266 -0.47119141 25.12822266 -2 25 C-1.81566406 24.25363281 -1.63132812 23.50726563 -1.44140625 22.73828125 C-0.85414764 19.09519909 -1.84702589 16.45892233 -3 13 C-1.8553125 12.5978125 -1.8553125 12.5978125 -0.6875 12.1875 C1.91245703 11.03868178 3.38885423 10.32721056 5 8 C5.00478037 5.8522367 5.00478037 5.8522367 4 4 C3.01 3.67 2.02 3.34 1 3 C0.67 2.01 0.34 1.02 0 0 Z " fill="#CDBCBE" transform="translate(120,83)"/>
<path d="M0 0 C8.28710425 0.20670782 12.4744334 2.65998954 18.375 8.25 C20.62311669 12.05450516 20.8102022 15.64414046 21 20 C20.401875 20.28875 19.80375 20.5775 19.1875 20.875 C16.80672208 22.04742026 16.80672208 22.04742026 14 24 C14 24.66 14 25.32 14 26 C14.92232422 25.65775391 14.92232422 25.65775391 15.86328125 25.30859375 C16.67152344 25.02113281 17.47976562 24.73367187 18.3125 24.4375 C19.11300781 24.14746094 19.91351563 23.85742188 20.73828125 23.55859375 C23 23 23 23 26 24 C26.6875 26.0625 26.6875 26.0625 27 28 C26.34 27.67 25.68 27.34 25 27 C25 26.34 25 25.68 25 25 C24.5153125 25.28875 24.030625 25.5775 23.53125 25.875 C18.37918716 28.72845019 14.877467 29.50667819 9 29 C8.34 28.67 7.68 28.34 7 28 C6.66666667 26.66666667 6.33333333 25.33333333 6 24 C5.34 23.67 4.68 23.34 4 23 C4 22.34 4 21.68 4 21 C4.66 21 5.32 21 6 21 C6.20625 20.401875 6.4125 19.80375 6.625 19.1875 C8.53737004 16.14509312 10.72121267 15.33828054 14 14 C14.99 14 15.98 14 17 14 C14.68198741 9.17853382 12.77482173 6.10443732 7.94921875 3.64453125 C4.56655275 2.52601444 1.53345846 2.752038 -2 3 C-1.34 2.01 -0.68 1.02 0 0 Z " fill="#5D4338" transform="translate(54,25)"/>
<path d="M0 0 C4.81397943 4.05387741 5.88541926 7.0217942 7 13 C6.34 13 5.68 13 5 13 C4.67 12.34 4.34 11.68 4 11 C3.34 11 2.68 11 2 11 C1.67 13.31 1.34 15.62 1 18 C1.99 17.67 2.98 17.34 4 17 C4.66 17.99 5.32 18.98 6 20 C4.02 20.99 4.02 20.99 2 22 C2 21.01 2 20.02 2 19 C-1.11332248 19.66868314 -1.11332248 19.66868314 -2.1875 22.0625 C-2.455625 22.701875 -2.72375 23.34125 -3 24 C-3.33 23.34 -3.66 22.68 -4 22 C-4.99 22 -5.98 22 -7 22 C-7.66 22.66 -8.32 23.32 -9 24 C-9 22.02 -9 20.04 -9 18 C-9.66 18 -10.32 18 -11 18 C-10.63605108 10.84233792 -10.63605108 10.84233792 -7.6875 6.9375 C-5 5 -5 5 -2.6875 5.1875 C-2.130625 5.455625 -1.57375 5.72375 -1 6 C-1.020625 5.195625 -1.04125 4.39125 -1.0625 3.5625 C-1 1 -1 1 0 0 Z " fill="#2B2C2D" transform="translate(72,114)"/>
<path d="M0 0 C0.84820312 0.10957031 1.69640625 0.21914062 2.5703125 0.33203125 C3.41335937 0.42871094 4.25640625 0.52539062 5.125 0.625 C15.29940785 2.68152925 23.80281639 10.18599003 29.90234375 18.28515625 C33.80882629 24.51510227 37.6953125 31.71965975 37.6953125 39.14453125 C35.8203125 38.85620117 35.8203125 38.85620117 33.6953125 38.14453125 C32.18337858 35.58428377 30.91664706 33.15016937 29.6953125 30.45703125 C25.79102487 22.07653885 21.86917563 15.98182067 14.62109375 10.07421875 C12.6953125 8.14453125 12.6953125 8.14453125 11.6953125 4.14453125 C6.0853125 3.81453125 0.4753125 3.48453125 -5.3046875 3.14453125 C-2.3046875 0.14453125 -2.3046875 0.14453125 0 0 Z " fill="#4F4743" transform="translate(65.3046875,11.85546875)"/>
<path d="M0 0 C0.99 0 1.98 0 3 0 C3 5.28 3 10.56 3 16 C2.01 16 1.02 16 0 16 C-0.029729 16.83978394 -0.029729 16.83978394 -0.06005859 17.6965332 C-0.15537783 20.23565854 -0.26502753 22.77396888 -0.375 25.3125 C-0.42140625 26.63411133 -0.42140625 26.63411133 -0.46875 27.98242188 C-0.52675781 29.25375977 -0.52675781 29.25375977 -0.5859375 30.55078125 C-0.6173584 31.33106689 -0.6487793 32.11135254 -0.68115234 32.9152832 C-1 35 -1 35 -3 38 C-5.6015625 38.29296875 -5.6015625 38.29296875 -8.625 38.1875 C-10.12933594 38.14689453 -10.12933594 38.14689453 -11.6640625 38.10546875 C-12.43492188 38.07066406 -13.20578125 38.03585938 -14 38 C-13.67 34.7 -13.34 31.4 -13 28 C-10.625 26.9375 -10.625 26.9375 -8 26 C-7.34 26.33 -6.68 26.66 -6 27 C-5.67 27.99 -5.34 28.98 -5 30 C-3.24265549 25.02638346 -1.67415387 20.2584002 -1 15 C-0.34 15 0.32 15 1 15 C1 14.01 1 13.02 1 12 C0.01 11.67 -0.98 11.34 -2 11 C-2 9.68 -2 8.36 -2 7 C-2.33 6.01 -2.66 5.02 -3 4 C-1.75 1.8125 -1.75 1.8125 0 0 Z " fill="#93726B" transform="translate(114,112)"/>
<path d="M0 0 C1.32 0.66 2.64 1.32 4 2 C4 2.66 4 3.32 4 4 C7.96 4.33 11.92 4.66 16 5 C15.67 5.66 15.34 6.32 15 7 C13.68 7 12.36 7 11 7 C11 8.32 11 9.64 11 11 C9 12.75 9 12.75 7 14 C7 12.35 7 10.7 7 9 C4.9837767 9.71563266 4.9837767 9.71563266 3 11 C2.19471111 13.05000871 2.19471111 13.05000871 2 15 C2.99 15.66 3.98 16.32 5 17 C4.34 17.33 3.68 17.66 3 18 C3 18.66 3 19.32 3 20 C3.66 20.33 4.32 20.66 5 21 C5 21.99 5 22.98 5 24 C4.34 24 3.68 24 3 24 C2.95101562 24.71027344 2.90203125 25.42054688 2.8515625 26.15234375 C2.77679688 27.07144531 2.70203125 27.99054688 2.625 28.9375 C2.55539063 29.85402344 2.48578125 30.77054688 2.4140625 31.71484375 C2.27742188 32.46894531 2.14078125 33.22304687 2 34 C1.01 34.495 1.01 34.495 0 35 C-1.36105389 29.30832011 -2.26081244 24.79973722 -1 19 C-0.90730036 16.32634716 -0.95385623 13.67633892 -1 11 C-0.34 10.67 0.32 10.34 1 10 C1 8.68 1 7.36 1 6 C0.34 5.67 -0.32 5.34 -1 5 C-0.67 3.35 -0.34 1.7 0 0 Z " fill="#5F4842" transform="translate(110,103)"/>
<path d="M0 0 C0.33 0 0.66 0 1 0 C1.66 2.64 2.32 5.28 3 8 C3.99 8 4.98 8 6 8 C6 8.99 6 9.98 6 11 C5.34 11 4.68 11 4 11 C4.36867188 11.71027344 4.73734375 12.42054687 5.1171875 13.15234375 C6.2366979 16.76350784 5.56039402 18.11473986 4.125 21.5625 C1.79522936 27.85600792 1.57576691 33.35368163 2 40 C-0.31 40 -2.62 40 -5 40 C-5.47365834 32.1056944 -5.09340342 26.76873493 -1 20 C1.34798056 15.57127079 1.34798056 15.57127079 1.75 10.6875 C1.19742351 9.44420289 0.60846174 8.21692349 0 7 C-0.04022391 4.6670134 -0.04320247 2.33293334 0 0 Z " fill="#5F4946" transform="translate(21,110)"/>
<path d="M0 0 C0.7425 0.804375 1.485 1.60875 2.25 2.4375 C4.65770615 5.13060632 4.65770615 5.13060632 7.1875 5.4375 C7.785625 5.623125 8.38375 5.80875 9 6 C10.25 9.0625 10.25 9.0625 11 12 C11.99 12 12.98 12 14 12 C13.3125 13.9375 13.3125 13.9375 12 16 C9.375 16.75 9.375 16.75 7 17 C7.515625 18.093125 8.03125 19.18625 8.5625 20.3125 C10 24 10 24 9 27 C8.34 27.66 7.68 28.32 7 29 C6.34865075 27.43979133 5.70417036 25.87671421 5.0625 24.3125 C4.70285156 23.44238281 4.34320313 22.57226562 3.97265625 21.67578125 C2.24026351 16.90996187 1.69064244 12.00715769 1 7 C0.814375 5.700625 0.62875 4.40125 0.4375 3.0625 C0.293125 2.051875 0.14875 1.04125 0 0 Z " fill="#AF736A" transform="translate(110,79)"/>
<path d="M0 0 C0.66 0 1.32 0 2 0 C2.33 1.32 2.66 2.64 3 4 C4.32 4 5.64 4 7 4 C7.43957031 3.34515625 7.87914062 2.6903125 8.33203125 2.015625 C10 0 10 0 13.13671875 -0.390625 C14.30847656 -0.34421875 15.48023438 -0.2978125 16.6875 -0.25 C18.45673828 -0.19585937 18.45673828 -0.19585937 20.26171875 -0.140625 C21.61716797 -0.07101563 21.61716797 -0.07101563 23 0 C23 0.66 23 1.32 23 2 C22.21753906 2.19335938 21.43507813 2.38671875 20.62890625 2.5859375 C19.61699219 2.84632812 18.60507813 3.10671875 17.5625 3.375 C16.04849609 3.75785156 16.04849609 3.75785156 14.50390625 4.1484375 C11.84429676 4.72573954 11.84429676 4.72573954 11 7 C13.64 6.67 16.28 6.34 19 6 C19 6.66 19 7.32 19 8 C17.03852126 9.38938077 15.03833424 10.7260411 13 12 C13.33 12.99 13.66 13.98 14 15 C16.97 15 19.94 15 23 15 C18.69421007 17.15289496 16.71947318 17.49678665 12 17 C6.61887664 13.85007413 1.87533793 8.00115863 0.125 2 C0.08375 1.34 0.0425 0.68 0 0 Z " fill="#604035" transform="translate(48,72)"/>
<path d="M0 0 C1.16147142 3.48441426 1 6.34133115 1 10 C1.32483418 11.33542939 1.6550855 12.66961551 2 14 C1.67 14.66 1.34 15.32 1 16 C-0.65 16 -2.3 16 -4 16 C-4.33 15.01 -4.66 14.02 -5 13 C-6.27875 13.020625 -7.5575 13.04125 -8.875 13.0625 C-12.75 13.125 -12.75 13.125 -15 12 C-15 11.34 -15 10.68 -15 10 C-14.34 10 -13.68 10 -13 10 C-13.33 9.01 -13.66 8.02 -14 7 C-13.5625 4.8125 -13.5625 4.8125 -13 3 C-12.09507813 3.17789063 -12.09507813 3.17789063 -11.171875 3.359375 C-8.73414325 3.75255754 -6.47079212 4.0467792 -4 4 C-1.4094273 2.24905348 -1.4094273 2.24905348 0 0 Z " fill="#B37865" transform="translate(78,58)"/>
<path d="M0 0 C2.5 1 2.5 1 4 2 C4 2.66 4 3.32 4 4 C4.99 4.33 5.98 4.66 7 5 C6.67 6.65 6.34 8.3 6 10 C4.44240657 10.53532823 2.87861955 11.05265378 1.3125 11.5625 C0.44238281 11.85253906 -0.42773438 12.14257812 -1.32421875 12.44140625 C-4.24631074 13.05141961 -6.14400553 12.77703633 -9 12 C-9 10.68 -9 9.36 -9 8 C-5.78571429 5 -5.78571429 5 -3 5 C-3 4.34 -3 3.68 -3 3 C-5.64 3.33 -8.28 3.66 -11 4 C-10.67 3.01 -10.34 2.02 -10 1 C-6.83013832 -0.58493084 -3.45967739 -0.2940042 0 0 Z " fill="#9D5F4F" transform="translate(70,75)"/>
<path d="M0 0 C1 2 1 2 0.4765625 3.8125 C0.05503906 4.8953125 0.05503906 4.8953125 -0.375 6 C-2.14352929 10.96641787 -2.6827983 15.76070288 -3 21 C-3.66 21 -4.32 21 -5 21 C-5 21.66 -5 22.32 -5 23 C-4.34 23.33 -3.68 23.66 -3 24 C-3.33 24.66 -3.66 25.32 -4 26 C-4.0396713 27.66619446 -4.04384447 29.33391013 -4 31 C-4.66 31 -5.32 31 -6 31 C-6 32.98 -6 34.96 -6 37 C-7.98 37 -9.96 37 -12 37 C-11.91166722 35.14501158 -11.8034837 33.290965 -11.6875 31.4375 C-11.62949219 30.40496094 -11.57148438 29.37242187 -11.51171875 28.30859375 C-10.92734358 24.53022909 -9.58328431 21.43407224 -8 18 C-7.39642233 16.54725099 -6.80037226 15.09135711 -6.2109375 13.6328125 C-5.90929687 12.89289063 -5.60765625 12.15296875 -5.296875 11.390625 C-4.67299965 9.85737201 -4.05064669 8.32349884 -3.4296875 6.7890625 C-1.11011905 1.11011905 -1.11011905 1.11011905 0 0 Z " fill="#BEAFB6" transform="translate(19,113)"/>
<path d="M0 0 C2.45703125 1.33984375 2.45703125 1.33984375 4.8125 2.9375 C5.60269531 3.46214844 6.39289063 3.98679687 7.20703125 4.52734375 C7.79871094 5.01332031 8.39039062 5.49929687 9 6 C9 6.66 9 7.32 9 8 C9.66 8 10.32 8 11 8 C11.66 9.65 12.32 11.3 13 13 C13.66 13 14.32 13 15 13 C16.42616157 16.32771033 17.37649014 19.43708654 18 23 C18.185625 23.928125 18.37125 24.85625 18.5625 25.8125 C18.706875 26.534375 18.85125 27.25625 19 28 C17.68 28 16.36 28 15 28 C14.79246094 27.40574219 14.58492187 26.81148437 14.37109375 26.19921875 C12.05487307 19.9677129 9.06330189 14.72281346 5.29296875 9.25 C4.86628906 8.5075 4.43960938 7.765 4 7 C4.33 6.34 4.66 5.68 5 5 C3.39658445 4.66307215 1.79223445 4.33058907 0.1875 4 C-0.70582031 3.814375 -1.59914063 3.62875 -2.51953125 3.4375 C-5.07260693 2.91315157 -5.07260693 2.91315157 -8 3 C-7.67 2.01 -7.34 1.02 -7 0 C-4.2509452 -1.3745274 -2.93282242 -0.81776508 0 0 Z " fill="#413A38" transform="translate(64,16)"/>
<path d="M0 0 C1.32 0.33 2.64 0.66 4 1 C2.125 5.75 2.125 5.75 1 8 C1.86625 7.443125 1.86625 7.443125 2.75 6.875 C5 6 5 6 7.25 6.875 C7.8275 7.24625 8.405 7.6175 9 8 C8.125 13.875 8.125 13.875 7 15 C4.13732433 15.07325168 1.299281 15.09238205 -1.5625 15.0625 C-2.36880859 15.05798828 -3.17511719 15.05347656 -4.00585938 15.04882812 C-6.00393756 15.03700518 -8.00197783 15.01906914 -10 15 C-9.34 14.67 -8.68 14.34 -8 14 C-8 13.34 -8 12.68 -8 12 C-7.34 12 -6.68 12 -6 12 C-5.731875 11.443125 -5.46375 10.88625 -5.1875 10.3125 C-4 8 -4 8 -2.4375 5.4375 C-0.88141236 2.99345222 -0.88141236 2.99345222 0 0 Z " fill="#2C2B2B" transform="translate(84,135)"/>
<path d="M0 0 C0.66 0.33 1.32 0.66 2 1 C2 3.31 2 5.62 2 8 C2.99 7.67 3.98 7.34 5 7 C5.33 6.34 5.66 5.68 6 5 C6.99 5 7.98 5 9 5 C8.24935921 12.80666423 8.24935921 12.80666423 5 16 C2.30078125 16.390625 2.30078125 16.390625 -0.6875 16.25 C-1.68136719 16.21390625 -2.67523438 16.1778125 -3.69921875 16.140625 C-4.83810547 16.07101563 -4.83810547 16.07101563 -6 16 C-5.34 15.67 -4.68 15.34 -4 15 C-3.64175227 11.66693571 -3.55539231 8.3536255 -3.44140625 5.00390625 C-3.29574219 4.01261719 -3.15007812 3.02132812 -3 2 C-2.01 1.34 -1.02 0.68 0 0 Z " fill="#C69D98" transform="translate(119,134)"/>
<path d="M0 0 C4 6 4 6 3.875 8.125 C2.42166086 12.90025718 0.40898943 17.56078174 -2.08984375 21.88671875 C-3.29502065 24.68500502 -3.42724946 27.21782502 -3.625 30.25 C-3.69976563 31.32765625 -3.77453125 32.4053125 -3.8515625 33.515625 C-3.90054687 34.33546875 -3.94953125 35.1553125 -4 36 C-4.99 36 -5.98 36 -7 36 C-7 34.02 -7 32.04 -7 30 C-6.34 30 -5.68 30 -5 30 C-5.165 29.0925 -5.33 28.185 -5.5 27.25 C-6 24 -6 24 -6 20 C-5.34 20 -4.68 20 -4 20 C-4.04640625 19.39414063 -4.0928125 18.78828125 -4.140625 18.1640625 C-4.43809301 11.25855509 -2.95864155 6.20786398 0 0 Z " fill="#B69A9E" transform="translate(20,114)"/>
<path d="M0 0 C2.75 -0.3125 2.75 -0.3125 6 0 C9.05661905 2.73486967 9.93974578 4.20163153 10.25 8.3125 C10.1675 9.199375 10.085 10.08625 10 11 C7.09399739 12.25664978 5.20395416 13 2 13 C1.91087781 16.83225427 2.12132271 20.26562152 3 24 C0.7522025 21.94766315 -0.0022242 20.99332739 -1 18 C-1.03954234 15.66700175 -1.04401732 13.33291811 -1 11 C-0.34 11 0.32 11 1 11 C1 10.01 1 9.02 1 8 C2.65 8.33 4.3 8.66 6 9 C6.33 8.01 6.66 7.02 7 6 C3.7 6 0.4 6 -3 6 C-2.67 5.01 -2.34 4.02 -2 3 C0.31 3 2.62 3 5 3 C5 2.34 5 1.68 5 1 C3.35 1 1.7 1 0 1 C0 0.67 0 0.34 0 0 Z " fill="#503B35" transform="translate(45,48)"/>
<path d="M0 0 C5.37187622 1.01630091 8.16669268 2.04303761 12 6 C12.66 6.33 13.32 6.66 14 7 C14 7.66 14 8.32 14 9 C8.92523206 10.26305335 4.27203646 11.27036084 -1 11 C-1.625 8.6875 -1.625 8.6875 -2 6 C-1.34 5.01 -0.68 4.02 0 3 C0 2.01 0 1.02 0 0 Z " fill="#A97C71" transform="translate(57,30)"/>
<path d="M0 0 C2 1 2 1 3.125 4.0625 C3.41375 5.031875 3.7025 6.00125 4 7 C-0.75 8 -0.75 8 -3 8 C-3 8.66 -3 9.32 -3 10 C-0.36 10 2.28 10 5 10 C5.66 11.32 6.32 12.64 7 14 C0.07 13.505 0.07 13.505 -7 13 C-6.67 11.35 -6.34 9.7 -6 8 C-6.86429586 4.26447971 -6.86429586 4.26447971 -8 1 C-7.4225 1.20625 -6.845 1.4125 -6.25 1.625 C-3.46120465 2.08979923 -2.43530833 1.29883111 0 0 Z " fill="#C7A5A1" transform="translate(125,95)"/>
<path d="M0 0 C0.33 0.66 0.66 1.32 1 2 C-0.85625 2.1546875 -0.85625 2.1546875 -2.75 2.3125 C-6.327552 2.7423119 -8.26182593 3.57776909 -11 6 C-11.66 6 -12.32 6 -13 6 C-12.67 7.65 -12.34 9.3 -12 11 C-12.66 11 -13.32 11 -14 11 C-14 14.3 -14 17.6 -14 21 C-15.65 21.33 -17.3 21.66 -19 22 C-19.62329486 12.26967471 -19.62329486 12.26967471 -17.3125 7.5625 C-11.73605874 1.38320023 -8.18164383 -0.18594645 0 0 Z " fill="#926C5D" transform="translate(60,27)"/>
<path d="M0 0 C0.33 0 0.66 0 1 0 C1.12117188 0.85464844 1.24234375 1.70929688 1.3671875 2.58984375 C1.53476563 3.69457031 1.70234375 4.79929687 1.875 5.9375 C2.03742188 7.03964844 2.19984375 8.14179687 2.3671875 9.27734375 C2.68042969 10.62505859 2.68042969 10.62505859 3 12 C3.66 12.33 4.32 12.66 5 13 C5.59765625 15.0390625 5.59765625 15.0390625 6.0625 17.625 C6.2275 18.52863281 6.3925 19.43226562 6.5625 20.36328125 C7.09438288 23.56882539 7.55816105 26.78088764 8 30 C8.64228845 33.62166181 8.64228845 33.62166181 10 37 C8.68 36.67 7.36 36.34 6 36 C5.34 32.7 4.68 29.4 4 26 C3.67 26 3.34 26 3 26 C2.67 23.03 2.34 20.06 2 17 C1.01 17 0.02 17 -1 17 C-1.33 15.35 -1.66 13.7 -2 12 C-1.34 12 -0.68 12 0 12 C0 8.04 0 4.08 0 0 Z " fill="#52453F" transform="translate(105,63)"/>
<path d="M0 0 C1.32 0.66 2.64 1.32 4 2 C3.67 2.66 3.34 3.32 3 4 C2.95919217 5.99958364 2.95745644 8.00045254 3 10 C3 10.33 3 10.66 3 11 C3.98028616 12.34789347 4.97971135 13.68212715 6 15 C2.535 17.475 2.535 17.475 -1 20 C-1.66 19.67 -2.32 19.34 -3 19 C-3 18.01 -3 17.02 -3 16 C-3.66 16 -4.32 16 -5 16 C-3.375 8.25 -3.375 8.25 0 6 C0.2502157 2.91634129 0.2502157 2.91634129 0 0 Z " fill="#CAB1B2" transform="translate(126,118)"/>
<path d="M0 0 C0.33 0.66 0.66 1.32 1 2 C0.67 2.66 0.34 3.32 0 4 C0.66 4 1.32 4 2 4 C2 4.99 2 5.98 2 7 C5.26360025 6.63737775 6.12943096 5.86733326 8.5 3.4375 C11 1 11 1 15 1 C14.67 2.32 14.34 3.64 14 5 C13.34 5 12.68 5 12 5 C11.7525 6.093125 11.505 7.18625 11.25 8.3125 C9.97997149 12.05908409 9.34243648 13.10595266 6 15 C6.33 13.02 6.66 11.04 7 9 C6.01 9 5.02 9 4 9 C3.67 9.99 3.34 10.98 3 12 C2.01 12 1.02 12 0 12 C-0.5745952 8.26513121 -1 4.78706732 -1 1 C-0.67 0.67 -0.34 0.34 0 0 Z " fill="#C4A5A3" transform="translate(121,130)"/>
<path d="M0 0 C0.33 0 0.66 0 1 0 C1 12.87 1 25.74 1 39 C-1.30317417 35.54523874 -1.65275878 32.63517956 -2.125 28.625 C-2.29257813 27.31789062 -2.46015625 26.01078125 -2.6328125 24.6640625 C-3.0713364 20.28815375 -3.28312935 16.98151507 -2.0625 12.75 C-0.85729614 8.49633933 -0.37832668 4.39058067 0 0 Z " fill="#8D95A3" transform="translate(149,111)"/>
<path d="M0 0 C0.66 0.33 1.32 0.66 2 1 C1.79890625 1.57363281 1.5978125 2.14726563 1.390625 2.73828125 C0.90626273 5.54273877 1.4545845 6.68584615 2.75 9.1875 C3.09546875 9.88230469 3.4409375 10.57710937 3.796875 11.29296875 C4.97342206 13.32072934 4.97342206 13.32072934 8 14 C7.67 10.7 7.34 7.4 7 4 C11.455 3.505 11.455 3.505 16 3 C16.99 4.485 16.99 4.485 18 6 C16.68 6 15.36 6 14 6 C14 6.99 14 7.98 14 9 C13.01 9 12.02 9 11 9 C10.87625 9.598125 10.7525 10.19625 10.625 10.8125 C10 13 10 13 8 16 C6.35 15.67 4.7 15.34 3 15 C3 13.68 3 12.36 3 11 C2.34 11 1.68 11 1 11 C-1.03684712 6.92630576 -1.0257259 4.41062136 0 0 Z " fill="#845748" transform="translate(47,61)"/>
<path d="M0 0 C3.96 0 7.92 0 12 0 C8 8.71428571 8 8.71428571 4 11 C3.34 10.34 2.68 9.68 2 9 C-0.10820797 9.3185177 -0.10820797 9.3185177 -2 10 C-1.67 8.906875 -1.34 7.81375 -1 6.6875 C0.13086649 3.15421116 0.13086649 3.15421116 0 0 Z " fill="#7F8691" transform="translate(13,0)"/>
<path d="M0 0 C7 8.20689655 7 8.20689655 7 13 C7.309375 13.66 7.61875 14.32 7.9375 15 C9.45012183 19.27093223 9.63779512 23.50477876 10 28 C10.18371021 29.87537511 10.37105139 31.75039906 10.5625 33.625 C10.70833333 35.08333333 10.85416667 36.54166667 11 38 C10.01 38.495 10.01 38.495 9 39 C7.97700323 34.67193675 7.04216154 30.36053634 6.33984375 25.96875 C5.1469117 18.56975071 3.959782 11.74125419 0.76953125 4.8828125 C0 3 0 3 0 0 Z " fill="#948F96" transform="translate(99,38)"/>
<path d="M0 0 C2.35953094 2.35953094 2.49141413 3.77895617 3 7 C3.33 7 3.66 7 4 7 C4.06058594 7.69867188 4.12117188 8.39734375 4.18359375 9.1171875 C4.26738281 10.02726562 4.35117188 10.93734375 4.4375 11.875 C4.51871094 12.77992187 4.59992188 13.68484375 4.68359375 14.6171875 C4.86989285 17.01110861 4.86989285 17.01110861 6 19 C6.99 19.33 7.98 19.66 9 20 C9 20.66 9 21.32 9 22 C6.25 22.3125 6.25 22.3125 3 22 C0.625 19.625 0.625 19.625 -1 17 C-1 16.34 -1 15.68 -1 15 C-0.34 15 0.32 15 1 15 C0.01 11.7 -0.98 8.4 -2 5 C-1.67 5 -1.34 5 -1 5 C-0.67 3.35 -0.34 1.7 0 0 Z " fill="#4D3E39" transform="translate(106,80)"/>
<path d="M0 0 C0.33 0 0.66 0 1 0 C1.66 2.64 2.32 5.28 3 8 C3.99 8 4.98 8 6 8 C6 8.99 6 9.98 6 11 C5.34 11 4.68 11 4 11 C4.58394531 11.94939453 4.58394531 11.94939453 5.1796875 12.91796875 C6.4136909 17.55429581 4.75474098 20.91913442 3.125 25.3125 C2.82980469 26.14845703 2.53460937 26.98441406 2.23046875 27.84570312 C1.50163201 29.9029036 0.75791595 31.95337283 0 34 C-0.33 34 -0.66 34 -1 34 C-1.19294408 29.17639811 -0.75747614 25.50353262 1 21 C0.34 21.66 -0.32 22.32 -1 23 C-0.24489796 17.46258503 -0.24489796 17.46258503 1.125 14.875 C2.20155682 13.01679182 2.20155682 13.01679182 1.6875 10.875 C1.02055654 8.9478068 1.02055654 8.9478068 0 7 C-0.04022391 4.6670134 -0.04320247 2.33293334 0 0 Z " fill="#766564" transform="translate(21,110)"/>
<path d="M0 0 C1.65 0 3.3 0 5 0 C5.06058594 0.61488281 5.12117188 1.22976562 5.18359375 1.86328125 C5.26738281 2.67152344 5.35117187 3.47976562 5.4375 4.3125 C5.51871094 5.11300781 5.59992187 5.91351563 5.68359375 6.73828125 C5.95265693 9.16087179 5.95265693 9.16087179 7 12 C6.67 12.66 6.34 13.32 6 14 C3.44401478 13.63331858 2.30574082 13.38262302 0.6640625 11.328125 C-2.16666667 5.66666667 -2.16666667 5.66666667 -1.25 2 C-0.8375 1.34 -0.425 0.68 0 0 Z " fill="#956657" transform="translate(49,61)"/>
<path d="M0 0 C0.721875 0.804375 1.44375 1.60875 2.1875 2.4375 C5.02515689 5.02292072 6.27166147 5.68042813 10 6 C10.33 6.99 10.66 7.98 11 9 C10.21496094 8.86980469 9.42992188 8.73960938 8.62109375 8.60546875 C2.60840005 7.63673204 2.60840005 7.63673204 -3.14453125 9.01171875 C-4.27731311 9.90413606 -5.38599435 10.82824069 -6.46484375 11.78515625 C-8.7751079 13.61338055 -11.12780249 13.78983921 -14 14 C-9.92064479 9.80732937 -6.20817905 6.60408952 -1 4 C-0.34786708 1.97536745 -0.34786708 1.97536745 0 0 Z " fill="#9798A4" transform="translate(64,5)"/>
<path d="M0 0 C1.67666168 3.35332335 0.53482999 7.01064875 0.0625 10.625 C-0.03740234 11.42679688 -0.13730469 12.22859375 -0.24023438 13.0546875 C-0.4880418 15.03714691 -0.74331807 17.01867009 -1 19 C-2.65 19 -4.3 19 -6 19 C-4.48101266 4.82278481 -4.48101266 4.82278481 -1.375 1 C-0.694375 0.505 -0.694375 0.505 0 0 Z " fill="#312D2A" transform="translate(101,131)"/>
<path d="M0 0 C-0.185625 0.86625 -0.37125 1.7325 -0.5625 2.625 C-1.01466105 6.1130995 -0.71324591 8.57641964 0 12 C0.90866394 16.36158692 0.93608986 19.63158064 0 24 C-0.66666667 22.66666667 -1.33333333 21.33333333 -2 20 C-2.34160156 19.38769531 -2.68320313 18.77539062 -3.03515625 18.14453125 C-4.08343251 15.8145569 -4.3607049 13.9749661 -4.5625 11.4375 C-4.79042405 8.67915381 -5.11350888 6.65947335 -6 4 C-5.67 3.01 -5.34 2.02 -5 1 C-2 0 -2 0 0 0 Z " fill="#403530" transform="translate(110,122)"/>
<path d="M0 0 C0.33 0 0.66 0 1 0 C1.33 7.59 1.66 15.18 2 23 C-1.45358085 19.54641915 -2.41354053 16.71611154 -3 12 C-2.93916644 7.29300365 -2.64167639 3.96251459 0 0 Z " fill="#868993" transform="translate(28,56)"/>
<path d="M0 0 C0.66 0.33 1.32 0.66 2 1 C1 4 1 4 -1 5 C-0.01 6.485 -0.01 6.485 1 8 C-1.475 9.485 -1.475 9.485 -4 11 C-4 10.34 -4 9.68 -4 9 C-3.34 9 -2.68 9 -2 9 C-2 8.34 -2 7.68 -2 7 C-6.05281712 8.22527029 -9.44360764 9.69880494 -13 12 C-11.69114898 6.43738316 -7.61114029 3.8853868 -3 1 C-2.01 0.67 -1.02 0.34 0 0 Z " fill="#363738" transform="translate(53,18)"/>
<path d="M0 0 C0.99 0.33 1.98 0.66 3 1 C2.26530861 2.63197842 1.51161878 4.25541307 0.75 5.875 C0.12351562 7.23238281 0.12351562 7.23238281 -0.515625 8.6171875 C-2.12441692 11.19972189 -3.19219328 11.95607186 -6 13 C-6 11.68 -6 10.36 -6 9 C-6.66 9 -7.32 9 -8 9 C-6.40758592 4.70048197 -3.64459275 2.60328053 0 0 Z " fill="#BEAEB6" transform="translate(31,102)"/>
<path d="M0 0 C0.66 0.66 1.32 1.32 2 2 C1.34 3.03125 0.68 4.0625 0 5.125 C-2.00352858 8.59264562 -2.17873102 10.97855204 -2 15 C-3 17.375 -3 17.375 -4 19 C-5.32 19 -6.64 19 -8 19 C-6.8545847 13.8896856 -5.54521255 9.62765919 -3 5 C-3.66 4.34 -4.32 3.68 -5 3 C-3.35 2.01 -1.7 1.02 0 0 Z " fill="#3D3938" transform="translate(36,98)"/>
<path d="M0 0 C0.66 0 1.32 0 2 0 C2.84266711 1.74552473 3.67380038 3.4966208 4.5 5.25 C5.19609375 6.71179687 5.19609375 6.71179687 5.90625 8.203125 C7 11 7 11 7 15 C5.1796875 14.80078125 5.1796875 14.80078125 3 14 C1.4453125 11.85546875 1.4453125 11.85546875 0.125 9.1875 C-0.32617188 8.31480469 -0.77734375 7.44210938 -1.2421875 6.54296875 C-2 4 -2 4 -1.1328125 1.67578125 C-0.75898437 1.12277344 -0.38515625 0.56976563 0 0 Z " fill="#52433B" transform="translate(96,36)"/>
<path d="M0 0 C2.69902901 4.34785219 2.02525531 8.37417456 1.77734375 13.3203125 C1.88755859 14.64675781 1.88755859 14.64675781 2 16 C2.99 16.66 3.98 17.32 5 18 C4.67 18.66 4.34 19.32 4 20 C3.01 19.67 2.02 19.34 1 19 C0.67 19.66 0.34 20.32 0 21 C-3.91275168 13.35234899 -3.91275168 13.35234899 -5 10 C-4.67 9.01 -4.34 8.02 -4 7 C-3.34 9.31 -2.68 11.62 -2 14 C-1.34 14 -0.68 14 0 14 C-0.08378906 13.32453125 -0.16757813 12.6490625 -0.25390625 11.953125 C-0.40666016 10.61507812 -0.40666016 10.61507812 -0.5625 9.25 C-0.66691406 8.36828125 -0.77132812 7.4865625 -0.87890625 6.578125 C-0.99456676 4.11567549 -0.73638695 2.33461936 0 0 Z " fill="#9E969C" transform="translate(114,65)"/>
<path d="M0 0 C1 2 2 4 3 6 C2.525625 6.4125 2.05125 6.825 1.5625 7.25 C-0.16266518 9.182185 -0.56584875 10.48192275 -1 13 C-3.31 13 -5.62 13 -8 13 C-5.35629454 8.34204276 -5.35629454 8.34204276 -3.4375 6.5 C-1.57260106 4.5540185 -0.88523742 2.51952188 0 0 Z M4 1 C4.33 1.66 4.66 2.32 5 3 C4.34 2.67 3.68 2.34 3 2 C3.33 1.67 3.66 1.34 4 1 Z " fill="#CAB2B4" transform="translate(132,137)"/>
<path d="M0 0 C0.99 0 1.98 0 3 0 C2.54775239 5.91492272 1.8417395 11.35199888 0 17 C-0.33 17 -0.66 17 -1 17 C-1 15.02 -1 13.04 -1 11 C-1.66 11 -2.32 11 -3 11 C-2.25 3.375 -2.25 3.375 0 0 Z " fill="#322F2F" transform="translate(64,121)"/>
<path d="M0 0 C2.475 0.495 2.475 0.495 5 1 C5 9.25 5 17.5 5 26 C4.34 26 3.68 26 3 26 C2.13588729 23.08597889 1.94895001 20.76215211 2.2265625 17.7421875 C2.319375 16.55689453 2.319375 16.55689453 2.4140625 15.34765625 C2.55540689 13.69078585 2.70391904 12.03451224 2.859375 10.37890625 C3.01904369 8.25808949 3.02080936 6.1267169 3 4 C2.01 3.34 1.02 2.68 0 2 C0 1.34 0 0.68 0 0 Z " fill="#999DA8" transform="translate(145,80)"/>
<path d="M0 0 C-0.3125 1.9375 -0.3125 1.9375 -1 4 C-1.99 4.33 -2.98 4.66 -4 5 C-5.62165 7.02706249 -6.02704373 8.45600501 -5.8984375 11.04296875 C-5.65152992 13.03586561 -5.33013516 15.01918905 -5 17 C-5.99 17.66 -6.98 18.32 -8 19 C-9.51708428 8.44191344 -9.51708428 8.44191344 -7 4 C-6.34 4 -5.68 4 -5 4 C-4.67 3.01 -4.34 2.02 -4 1 C-2 0 -2 0 0 0 Z " fill="#2C2C2C" transform="translate(97,117)"/>
<path d="M0 0 C0.99 0 1.98 0 3 0 C1.24584045 4.49171158 -0.68457064 8.8992064 -2.625 13.3125 C-3.11226562 14.42334961 -3.11226562 14.42334961 -3.609375 15.55664062 C-4.40553151 17.37140913 -5.20266717 19.18574802 -6 21 C-7.18602032 16.5960148 -6.81181065 13.50185904 -6 9 C-5.34 8.67 -4.68 8.34 -4 8 C-2.87775145 6.11986894 -2.87775145 6.11986894 -1.875 3.9375 C-1.34519531 2.83728516 -1.34519531 2.83728516 -0.8046875 1.71484375 C-0.53914063 1.14894531 -0.27359375 0.58304688 0 0 Z " fill="#8A8C97" transform="translate(37,28)"/>
<path d="M0 0 C1.32 0.66 2.64 1.32 4 2 C4 2.66 4 3.32 4 4 C7.96 4.33 11.92 4.66 16 5 C15.67 5.66 15.34 6.32 15 7 C13.68 7 12.36 7 11 7 C11 8.32 11 9.64 11 11 C10.34 10.67 9.68 10.34 9 10 C9 9.01 9 8.02 9 7 C6.36 7.33 3.72 7.66 1 8 C1 7.34 1 6.68 1 6 C0.34 5.67 -0.32 5.34 -1 5 C-0.67 3.35 -0.34 1.7 0 0 Z " fill="#714D44" transform="translate(110,103)"/>
<path d="M0 0 C0.66 0.33 1.32 0.66 2 1 C1.50628906 1.40992187 1.01257812 1.81984375 0.50390625 2.2421875 C-0.13675781 2.78101562 -0.77742188 3.31984375 -1.4375 3.875 C-2.07558594 4.40867187 -2.71367187 4.94234375 -3.37109375 5.4921875 C-5.10805004 6.9222757 -5.10805004 6.9222757 -6 9 C-5.34 9 -4.68 9 -4 9 C-3.67 9.99 -3.34 10.98 -3 12 C-2.01 11.67 -1.02 11.34 0 11 C-0.33 12.65 -0.66 14.3 -1 16 C-2.32 16.33 -3.64 16.66 -5 17 C-7.44605705 13.33091443 -7.83946402 10.26381231 -7 6 C-4.82425584 3.30894802 -3.08934144 1.54467072 0 0 Z " fill="#9C8E93" transform="translate(29,102)"/>
<path d="M0 0 C7.2264303 -0.61240935 7.2264303 -0.61240935 11 2.375 C13 5 13 5 13 7 C8.69666114 7.36885762 6.53339666 6.41758719 3 4 C2.01 3.34 1.02 2.68 0 2 C0 1.34 0 0.68 0 0 Z " fill="#1D2022" transform="translate(56,21)"/>
<path d="M0 0 C0.99 0.66 1.98 1.32 3 2 C2.67 2.66 2.34 3.32 2 4 C1.9603287 5.66619446 1.95615553 7.33391013 2 9 C1.34 9 0.68 9 0 9 C0 10.98 0 12.96 0 15 C-1.65 15 -3.3 15 -5 15 C-4.34 14.67 -3.68 14.34 -3 14 C-3.061875 12.989375 -3.12375 11.97875 -3.1875 10.9375 C-2.97357173 6.44500628 -1.95386468 3.98914039 0 0 Z " fill="#BCA7AC" transform="translate(13,135)"/>
<path d="M0 0 C0.99 0.33 1.98 0.66 3 1 C3.21192221 6.19209404 2.5912689 10.126739 1 15 C-0.65 15 -2.3 15 -4 15 C-3.34 14.67 -2.68 14.34 -2 14 C-1.56848028 10.98688185 -1.56848028 10.98688185 -1.4375 7.5 C-1.09644087 1.09644087 -1.09644087 1.09644087 0 0 Z " fill="#BF8576" transform="translate(117,135)"/>
<path d="M0 0 C0.33 0 0.66 0 1 0 C1.04898438 0.81984375 1.09796875 1.6396875 1.1484375 2.484375 C1.22320312 3.56203125 1.29796875 4.6396875 1.375 5.75 C1.44460937 6.81734375 1.51421875 7.8846875 1.5859375 8.984375 C1.97796575 11.83952416 2.61282285 13.52484077 4 16 C4.5625 18.6875 4.5625 18.6875 4 22 C1.89693212 25.20442512 -0.48432659 28.1121096 -3 31 C-3.66 30.67 -4.32 30.34 -5 30 C-2.25 25.125 -2.25 25.125 0 24 C0.50585698 21.94443781 0.50585698 21.94443781 0.6875 19.5625 C0.77386719 18.75941406 0.86023438 17.95632812 0.94921875 17.12890625 C1.16761148 14.94487686 1.16761148 14.94487686 0 13 C-0.07092842 10.7927077 -0.08415025 8.58332548 -0.0625 6.375 C-0.05347656 5.18648437 -0.04445313 3.99796875 -0.03515625 2.7734375 C-0.02355469 1.85820313 -0.01195313 0.94296875 0 0 Z " fill="#794A39" transform="translate(81,54)"/>
<path d="M0 0 C2.8125 -0.25 2.8125 -0.25 6 0 C8.467339 2.2206051 8.96152446 3.43569203 9.1875 6.75 C9.125625 7.4925 9.06375 8.235 9 9 C8.34 9 7.68 9 7 9 C7 8.01 7 7.02 7 6 C3.7 6 0.4 6 -3 6 C-2.67 5.01 -2.34 4.02 -2 3 C0.31 3 2.62 3 5 3 C5 2.34 5 1.68 5 1 C3.35 1 1.7 1 0 1 C0 0.67 0 0.34 0 0 Z " fill="#4A372F" transform="translate(45,48)"/>
<path d="M0 0 C2.3125 0.5 2.3125 0.5 5 2 C6.45526382 4.54259302 7.44175241 7.12331598 8 10 C7 13 7 13 5 15 C4.34865075 13.43979133 3.70417036 11.87671421 3.0625 10.3125 C2.70285156 9.44238281 2.34320313 8.57226562 1.97265625 7.67578125 C1.0429688 5.11820735 0.45837375 2.6778677 0 0 Z " fill="#B2908E" transform="translate(112,93)"/>
<path d="M0 0 C0.66 0 1.32 0 2 0 C1.67 1.65 1.34 3.3 1 5 C1.66 5 2.32 5 3 5 C3 5.66 3 6.32 3 7 C2.34 7 1.68 7 1 7 C0.731875 7.721875 0.46375 8.44375 0.1875 9.1875 C-0.99354833 11.98471974 -2.33361698 14.46419975 -4 17 C-4.33 17 -4.66 17 -5 17 C-4.88557539 15.39504433 -4.75805306 13.79101881 -4.625 12.1875 C-4.55539063 11.29417969 -4.48578125 10.40085937 -4.4140625 9.48046875 C-4 7 -4 7 -2 4 C-1.34 4 -0.68 4 0 4 C0 2.68 0 1.36 0 0 Z " fill="#B18F8B" transform="translate(121,110)"/>
<path d="M0 0 C0.33 0 0.66 0 1 0 C1.12117188 0.68707031 1.24234375 1.37414063 1.3671875 2.08203125 C1.53476563 2.98308594 1.70234375 3.88414063 1.875 4.8125 C2.03742188 5.70582031 2.19984375 6.59914063 2.3671875 7.51953125 C2.91188449 10.22727846 2.91188449 10.22727846 5 13 C5.49144838 17.34112735 5.24183485 19.5413477 3.1875 23.4375 C2.465625 24.283125 1.74375 25.12875 1 26 C0.01 26 -0.98 26 -2 26 C-1.319375 25.360625 -0.63875 24.72125 0.0625 24.0625 C2.4960997 20.21584241 2.11310485 18.24522343 1.45703125 13.890625 C1.17384758 12.00012666 1.17384758 12.00012666 0 11 C-0.07226502 9.14712498 -0.0838122 7.29166122 -0.0625 5.4375 C-0.05347656 4.42558594 -0.04445313 3.41367187 -0.03515625 2.37109375 C-0.02355469 1.58863281 -0.01195313 0.80617187 0 0 Z " fill="#4B332A" transform="translate(82,55)"/>
<path d="M0 0 C1.79244141 0.01740234 1.79244141 0.01740234 3.62109375 0.03515625 C5.41740234 0.04869141 5.41740234 0.04869141 7.25 0.0625 C8.17683594 0.07410156 9.10367188 0.08570312 10.05859375 0.09765625 C10.05859375 0.75765625 10.05859375 1.41765625 10.05859375 2.09765625 C8.30874021 2.57735748 6.55870484 3.05639549 4.80859375 3.53515625 C3.8340625 3.80199219 2.85953125 4.06882812 1.85546875 4.34375 C-0.40513278 4.95310209 -2.66762634 5.5400388 -4.94140625 6.09765625 C-3.87001683 0.12848661 -3.87001683 0.12848661 0 0 Z " fill="#653A32" transform="translate(60.94140625,71.90234375)"/>
<path d="M0 0 C6.68555196 0.1667598 11.06880387 1.38818186 16 6 C18.4375 8.8125 18.4375 8.8125 20 11 C19.67 11.66 19.34 12.32 19 13 C18.278125 12.236875 17.55625 11.47375 16.8125 10.6875 C14.28202971 8.26949505 12.03874611 6.67930706 9 5 C8.01 4.34 7.02 3.68 6 3 C3.94290404 2.75944532 3.94290404 2.75944532 1.8125 2.875 C0.554375 2.91625 -0.70375 2.9575 -2 3 C-1.34 2.01 -0.68 1.02 0 0 Z " fill="#573F35" transform="translate(54,25)"/>
<path d="M0 0 C2.90802461 2.21928194 4.95312762 3.92969143 7 7 C6.625 9.1875 6.625 9.1875 6 11 C5.01 11 4.02 11 3 11 C1.61328125 9.3203125 1.61328125 9.3203125 0.3125 7.125 C-0.12449219 6.40570313 -0.56148438 5.68640625 -1.01171875 4.9453125 C-2 3 -2 3 -2 1 C-1.34 0.67 -0.68 0.34 0 0 Z " fill="#5D4D46" transform="translate(90,26)"/>
<path d="M0 0 C0 2.97 0 5.94 0 9 C-1.98 9 -3.96 9 -6 9 C-5.4140625 2.84765625 -5.4140625 2.84765625 -5 1 C-3 0 -3 0 0 0 Z " fill="#A17C74" transform="translate(106,141)"/>
<path d="M0 0 C0.7425 0.804375 1.485 1.60875 2.25 2.4375 C4.75304829 4.76988591 5.7180955 5.63534394 9 6 C8.67 7.32 8.34 8.64 8 10 C7.67 9.34 7.34 8.68 7 8 C6.34 8.66 5.68 9.32 5 10 C5.33 10.99 5.66 11.98 6 13 C4.68 12.67 3.36 12.34 2 12 C1.1558062 8.02022924 0.55312735 4.02992782 0 0 Z " fill="#A67B75" transform="translate(110,79)"/>
<path d="M0 0 C11.69321313 1.51052145 11.69321313 1.51052145 15.6953125 6.14453125 C14.3753125 6.14453125 13.0553125 6.14453125 11.6953125 6.14453125 C11.6953125 5.48453125 11.6953125 4.82453125 11.6953125 4.14453125 C6.0853125 3.81453125 0.4753125 3.48453125 -5.3046875 3.14453125 C-2.3046875 0.14453125 -2.3046875 0.14453125 0 0 Z " fill="#505053" transform="translate(65.3046875,11.85546875)"/>
<path d="M0 0 C3.25094199 1.04494564 4.56873286 2.59135491 6.25 5.4375 C8 9 8 9 8 12 C7.01 11.67 6.02 11.34 5 11 C4.5 9 4.5 9 4 7 C3.01 6.67 2.02 6.34 1 6 C1 5.34 1 4.68 1 4 C-0.32 3.34 -1.64 2.68 -3 2 C-2.01 1.34 -1.02 0.68 0 0 Z " fill="#292724" transform="translate(69,27)"/>
<path d="M0 0 C0.99 0.66 1.98 1.32 3 2 C3.3984375 4.27734375 3.3984375 4.27734375 3.375 6.9375 C3.38273437 7.81277344 3.39046875 8.68804687 3.3984375 9.58984375 C2.93271782 12.4069912 2.27246955 13.32058958 0 15 C-0.66 15 -1.32 15 -2 15 C-2 12.69 -2 10.38 -2 8 C-1.67 8 -1.34 8 -1 8 C-0.67 5.36 -0.34 2.72 0 0 Z " fill="#C49991" transform="translate(113,135)"/>
<path d="M0 0 C3.3 0 6.6 0 10 0 C9.67 1.32 9.34 2.64 9 4 C5.37 4 1.74 4 -2 4 C-1.34 2.68 -0.68 1.36 0 0 Z " fill="#B47B66" transform="translate(64,81)"/>
<path d="M0 0 C1.08635236 3.32069408 0.90041441 5.66205214 0.1875 9.0625 C0.01605469 9.91972656 -0.15539062 10.77695313 -0.33203125 11.66015625 C-1 14 -1 14 -3 17 C-3.08097324 14.72975032 -3.13917704 12.45867925 -3.1875 10.1875 C-3.22230469 8.92292969 -3.25710937 7.65835938 -3.29296875 6.35546875 C-3 3 -3 3 -1.48828125 1.05078125 C-0.75158203 0.53064453 -0.75158203 0.53064453 0 0 Z " fill="#333536" transform="translate(32,57)"/>
<path d="M0 0 C1.98 0 3.96 0 6 0 C2.14578588 8.6309795 2.14578588 8.6309795 -2 11 C-2.33 9.68 -2.66 8.36 -3 7 C-2.34 6.67 -1.68 6.34 -1 6 C-0.34227572 2.97065509 -0.34227572 2.97065509 0 0 Z " fill="#818691" transform="translate(19,0)"/>
<path d="M0 0 C3.49903901 6.49821531 4.45450873 12.73635303 5 20 C4.34 20.33 3.68 20.66 3 21 C2.49968267 18.77043053 2.00261572 16.54026012 1.51171875 14.30859375 C1.14650871 12.66096679 0.76588687 11.01672484 0.375 9.375 C-0.12076082 6.23518149 -0.06220345 3.17237598 0 0 Z " fill="#7D7679" transform="translate(105,56)"/>
<path d="M0 0 C0.33 0.66 0.66 1.32 1 2 C2.58323688 2.027193 4.16661062 2.04648306 5.75 2.0625 C6.63171875 2.07410156 7.5134375 2.08570312 8.421875 2.09765625 C10.7818838 2.00826198 12.74498524 1.66912821 15 1 C12.63919401 4.24610824 9.74681084 4.88494295 6.0078125 5.7265625 C3.48037514 6.07076603 1.42587001 5.75808438 -1 5 C-1 1 -1 1 0 0 Z " fill="#905C4A" transform="translate(62,82)"/>
<path d="M0 0 C0.66 0 1.32 0 2 0 C2.33 3.63 2.66 7.26 3 11 C1.68 11.33 0.36 11.66 -1 12 C-1.02687279 10.18757948 -1.04633715 8.37504767 -1.0625 6.5625 C-1.07410156 5.55316406 -1.08570313 4.54382812 -1.09765625 3.50390625 C-1 1 -1 1 0 0 Z " fill="#BB8D81" transform="translate(57,52)"/>
<path d="M0 0 C0.99 0.33 1.98 0.66 3 1 C3.33 2.98 3.66 4.96 4 7 C1.69 7 -0.62 7 -3 7 C-2.67 6.34 -2.34 5.68 -2 5 C-3.65 5 -5.3 5 -7 5 C-6.67 4.34 -6.34 3.68 -6 3 C-2.9375 2.375 -2.9375 2.375 0 2 C0 1.34 0 0.68 0 0 Z " fill="#7B584B" transform="translate(71,37)"/>
<path d="M0 0 C1.50416548 3.00833096 0.60839737 5.34961578 0.0625 8.625 C-0.13214844 9.81351563 -0.32679687 11.00203125 -0.52734375 12.2265625 C-0.68332031 13.14179687 -0.83929688 14.05703125 -1 15 C-0.34 15.33 0.32 15.66 1 16 C-0.32 16 -1.64 16 -3 16 C-3.55353075 4.29384966 -3.55353075 4.29384966 0 0 Z " fill="#6C4E42" transform="translate(44,33)"/>
<path d="M0 0 C0.33 0 0.66 0 1 0 C1 1.65 1 3.3 1 5 C1.66 5 2.32 5 3 5 C3.20512828 8.69230905 2.72405582 10.76739533 1 14 C1 14.99 1 15.98 1 17 C0.34 16.34 -0.32 15.68 -1 15 C-0.98252112 12.40730017 -0.86231408 9.9474846 -0.625 7.375 C-0.56828125 6.66859375 -0.5115625 5.9621875 -0.453125 5.234375 C-0.31159079 3.48878639 -0.15702613 1.74426327 0 0 Z " fill="#2E2E2E" transform="translate(35,129)"/>
<path d="M0 0 C2.475 0.99 2.475 0.99 5 2 C4.67 3.65 4.34 5.3 4 7 C2.68 7.33 1.36 7.66 0 8 C-1.09658936 4.71023192 -0.79953138 3.28696233 0 0 Z " fill="#8D96A2" transform="translate(10,117)"/>
<path d="M0 0 C2.97 0.495 2.97 0.495 6 1 C6.33 1.99 6.66 2.98 7 4 C6.67 4.66 6.34 5.32 6 6 C4.02 6 2.04 6 0 6 C-1.24546405 3.50907189 -0.7767578 2.58919267 0 0 Z " fill="#AB715F" transform="translate(65,61)"/>
<path d="M0 0 C1.85546875 0.22265625 1.85546875 0.22265625 4 1 C5.30078125 2.99609375 5.30078125 2.99609375 6.3125 5.4375 C6.65925781 6.24058594 7.00601563 7.04367188 7.36328125 7.87109375 C8 10 8 10 7 12 C6.4225 11.2575 5.845 10.515 5.25 9.75 C3.27746474 7.33912357 1.23955718 5.15957299 -1 3 C-0.67 2.01 -0.34 1.02 0 0 Z " fill="#4C4240" transform="translate(71,23)"/>
<path d="M0 0 C0.99 0 1.98 0 3 0 C3 2.31 3 4.62 3 7 C1.35 7 -0.3 7 -2 7 C-2.33 6.01 -2.66 5.02 -3 4 C-1.75 1.8125 -1.75 1.8125 0 0 Z " fill="#936457" transform="translate(114,112)"/>
<path d="M0 0 C1.8492839 2.11967528 2.94194997 3.4123708 3.22265625 6.25390625 C3.16980469 7.01574219 3.11695312 7.77757813 3.0625 8.5625 C2.82277111 12.20760851 2.84578327 12.76867491 5 16 C3.0625 15.625 3.0625 15.625 1 15 C-0.44207941 12.11584117 -0.09394887 9.58278472 -0.0625 6.375 C-0.05347656 5.18648438 -0.04445313 3.99796875 -0.03515625 2.7734375 C-0.02355469 1.85820313 -0.01195313 0.94296875 0 0 Z " fill="#846159" transform="translate(110,84)"/>
<path d="M0 0 C0.33 0.66 0.66 1.32 1 2 C-0.85625 2.1546875 -0.85625 2.1546875 -2.75 2.3125 C-6.38935661 2.7417903 -8.1145152 3.73283337 -11 6 C-13.25 5.6875 -13.25 5.6875 -15 5 C-9.77146992 0.49765466 -6.81259709 -0.15483175 0 0 Z " fill="#7E5A4F" transform="translate(60,27)"/>
<path d="M0 0 C0.99 0.33 1.98 0.66 3 1 C3.66 0.67 4.32 0.34 5 0 C6.42857143 8.42857143 6.42857143 8.42857143 4 13 C3.67 13 3.34 13 3 13 C2.86722656 12.39671875 2.73445313 11.7934375 2.59765625 11.171875 C2.42105469 10.37265625 2.24445313 9.5734375 2.0625 8.75 C1.88847656 7.96109375 1.71445313 7.1721875 1.53515625 6.359375 C1.052444 4.23121297 0.53836822 2.11467158 0 0 Z " fill="#6B5247" transform="translate(105,76)"/>
<path d="M0 0 C2.475 0.99 2.475 0.99 5 2 C3.68 2.33 2.36 2.66 1 3 C2.93254772 5.0245738 4.63158688 6.42105792 7 8 C5.54054712 7.91291331 4.08234132 7.80473093 2.625 7.6875 C1.81289063 7.62949219 1.00078125 7.57148438 0.1640625 7.51171875 C-2 7 -2 7 -4 4 C-3.01 4 -2.02 4 -1 4 C-0.67 2.68 -0.34 1.36 0 0 Z " fill="#282A29" transform="translate(55,18)"/>
<path d="M0 0 C0.99 0.66 1.98 1.32 3 2 C2.67 3.65 2.34 5.3 2 7 C-2.455 7.495 -2.455 7.495 -7 8 C-6.67 7.01 -6.34 6.02 -6 5 C-4.02 4.67 -2.04 4.34 0 4 C-0.33 3.01 -0.66 2.02 -1 1 C-0.67 0.67 -0.34 0.34 0 0 Z " fill="#CDB3B2" transform="translate(128,98)"/>
<path d="M0 0 C0.99 1.485 0.99 1.485 2 3 C3.32 3 4.64 3 6 3 C6 2.01 6 1.02 6 0 C7.98 0 9.96 0 12 0 C11.01 0.495 11.01 0.495 10 1 C10 2.32 10 3.64 10 5 C6.7 5 3.4 5 0 5 C0 3.35 0 1.7 0 0 Z " fill="#B57C69" transform="translate(55,60)"/>
<path d="M0 0 C-1.32 0.33 -2.64 0.66 -4 1 C-4 1.99 -4 2.98 -4 4 C-5.65 4 -7.3 4 -9 4 C-9.33 2.68 -9.66 1.36 -10 0 C-6.30458414 -0.95024979 -3.69541586 -0.95024979 0 0 Z " fill="#613D30" transform="translate(65,66)"/>
<path d="M0 0 C2.43818936 3.65728405 2.6716692 6.93287895 3.125 11.1875 C3.21136719 11.93708984 3.29773438 12.68667969 3.38671875 13.45898438 C3.59838382 15.30517412 3.80015464 17.15249344 4 19 C1.54277754 16.11572016 0.61779563 14.21361097 0.375 10.4375 C0.17796467 7.65554881 -0.10535539 5.68393383 -1 3 C-0.67 2.01 -0.34 1.02 0 0 Z " fill="#5A443E" transform="translate(105,123)"/>
<path d="M0 0 C4.455 0.99 4.455 0.99 9 2 C6.20091867 4.79908133 3.86918237 4.72362983 0 5 C-0.66 4.34 -1.32 3.68 -2 3 C-1.34 2.01 -0.68 1.02 0 0 Z " fill="#AE8379" transform="translate(61,36)"/>
<path d="M0 0 C0.66 0.33 1.32 0.66 2 1 C2 2.98 2 4.96 2 7 C0.68 7.33 -0.64 7.66 -2 8 C-2.6875 5.6875 -2.6875 5.6875 -3 3 C-1.5625 1.1875 -1.5625 1.1875 0 0 Z " fill="#939CA6" transform="translate(143,100)"/>
<path d="M0 0 C0.33 0.66 0.66 1.32 1 2 C1.66 2.309375 2.32 2.61875 3 2.9375 C5 4 5 4 6 7 C5.01 7.99 4.02 8.98 3 10 C2.67 9.01 2.34 8.02 2 7 C1.01 6.34 0.02 5.68 -1 5 C-0.67 3.35 -0.34 1.7 0 0 Z " fill="#9D8C8F" transform="translate(33,88)"/>
<path d="M0 0 C0.99 0.33 1.98 0.66 3 1 C2.14285714 9.57142857 2.14285714 9.57142857 0 13 C-0.83796731 8.34462607 -1.0161692 4.62921525 0 0 Z " fill="#443A39" transform="translate(63,125)"/>
<path d="M0 0 C-0.75 5.75 -0.75 5.75 -3 8 C-3 6.35 -3 4.7 -3 3 C-4.65 3.33 -6.3 3.66 -8 4 C-7.67 3.01 -7.34 2.02 -7 1 C-4.53721199 -0.231394 -2.7204945 -0.07159196 0 0 Z " fill="#583B33" transform="translate(120,109)"/>
<path d="M0 0 C2.375 -0.125 2.375 -0.125 5 0 C5.66 0.66 6.32 1.32 7 2 C6.625 4.125 6.625 4.125 6 6 C4.125 5.8125 4.125 5.8125 2 5 C0.75 2.4375 0.75 2.4375 0 0 Z " fill="#B3979B" transform="translate(119,86)"/>
<path d="M0 0 C1.9375 0.75 1.9375 0.75 3.9375 2.75 C1.36536866 4.36949011 0.26080841 4.79408751 -2.8125 4.375 C-3.555 4.16875 -4.2975 3.9625 -5.0625 3.75 C-5.0625 3.09 -5.0625 2.43 -5.0625 1.75 C-2.0625 -0.25 -2.0625 -0.25 0 0 Z " fill="#B7846F" transform="translate(68.0625,66.25)"/>
<path d="M0 0 C1.57156655 3.1431331 0.11705576 5.365464 -0.9375 8.625 C-1.31777344 9.81351563 -1.69804687 11.00203125 -2.08984375 12.2265625 C-2.39019531 13.14179688 -2.69054687 14.05703125 -3 15 C-3.33 15 -3.66 15 -4 15 C-4.50610724 8.92671312 -3.04157942 5.22771463 0 0 Z " fill="#8C6C6C" transform="translate(24,129)"/>
<path d="M0 0 C0.99 0.33 1.98 0.66 3 1 C1.68 3.64 0.36 6.28 -1 9 C-1.99 8.01 -2.98 7.02 -4 6 C-3.875 3.9375 -3.875 3.9375 -3 2 C-2.01 1.34 -1.02 0.68 0 0 Z " fill="#B7A8AE" transform="translate(31,102)"/>
<path d="M0 0 C0.78375 0.04125 1.5675 0.0825 2.375 0.125 C2.045 1.115 1.715 2.105 1.375 3.125 C0.385 2.795 -0.605 2.465 -1.625 2.125 C-1.625 4.105 -1.625 6.085 -1.625 8.125 C-2.285 8.125 -2.945 8.125 -3.625 8.125 C-3.625 7.135 -3.625 6.145 -3.625 5.125 C-5.275 4.795 -6.925 4.465 -8.625 4.125 C-8.625 3.795 -8.625 3.465 -8.625 3.125 C-6.975 3.125 -5.325 3.125 -3.625 3.125 C-3.955 2.795 -4.285 2.465 -4.625 2.125 C-2.625 0.125 -2.625 0.125 0 0 Z " fill="#B1AAB1" transform="translate(122.625,77.875)"/>
<path d="M0 0 C0 1.98 0 3.96 0 6 C-1.65 5.67 -3.3 5.34 -5 5 C-5.33 4.01 -5.66 3.02 -6 2 C-3 0 -3 0 0 0 Z " fill="#A07162" transform="translate(53,62)"/>
<path d="M0 0 C0.33 0 0.66 0 1 0 C1 1.98 1 3.96 1 6 C-1.90600261 7.25664978 -3.79604584 8 -7 8 C-7 6.35 -7 4.7 -7 3 C-4.69 3.33 -2.38 3.66 0 4 C0 2.68 0 1.36 0 0 Z " fill="#57413A" transform="translate(54,53)"/>
<path d="M0 0 C0.99 0 1.98 0 3 0 C3.625 1.875 3.625 1.875 4 4 C3.34 4.66 2.68 5.32 2 6 C1.34 6 0.68 6 0 6 C-0.33 5.67 -0.66 5.34 -1 5 C-1.99 4.67 -2.98 4.34 -4 4 C-3.67 3.34 -3.34 2.68 -3 2 C-2.01 2 -1.02 2 0 2 C0 1.34 0 0.68 0 0 Z " fill="#AF7C6B" transform="translate(75,52)"/>
<path d="M0 0 C2.31 0 4.62 0 7 0 C6.67 1.32 6.34 2.64 6 4 C6.99 4.33 7.98 4.66 9 5 C8.67 5.99 8.34 6.98 8 8 C5.33333333 5.33333333 2.66666667 2.66666667 0 0 Z " fill="#93959F" transform="translate(81,17)"/>
<path d="M0 0 C1.33332095 2.6666419 0.67102033 4.16680303 0 7 C-1.65 7 -3.3 7 -5 7 C-5 5.68 -5 4.36 -5 3 C-2.5 1.25 -2.5 1.25 0 0 Z " fill="#403632" transform="translate(100,143)"/>
<path d="M0 0 C1.485 0.99 1.485 0.99 3 2 C3.29296875 4.6015625 3.29296875 4.6015625 3.1875 7.625 C3.16042969 8.62789062 3.13335937 9.63078125 3.10546875 10.6640625 C3.07066406 11.43492187 3.03585938 12.20578125 3 13 C0.89172945 9.83759418 0.66182535 8.49342531 0.375 4.8125 C0.30023438 3.91144531 0.22546875 3.01039063 0.1484375 2.08203125 C0.09945312 1.39496094 0.05046875 0.70789063 0 0 Z " fill="#9EA1AD" transform="translate(147,137)"/>
<path d="M0 0 C4.19162145 0.95264124 5.7207791 1.63260408 8.375 5.125 C8.91125 6.07375 9.4475 7.0225 10 8 C7.5625 7.1875 7.5625 7.1875 5 6 C4.67 5.01 4.34 4.02 4 3 C3.01 3 2.02 3 1 3 C0.67 2.01 0.34 1.02 0 0 Z " fill="#8F6251" transform="translate(61,29)"/>
<path d="M0 0 C1.2065625 0.0309375 1.2065625 0.0309375 2.4375 0.0625 C3.0625 2.9375 3.0625 2.9375 3.4375 6.0625 C2.7775 6.7225 2.1175 7.3825 1.4375 8.0625 C-0.2125 5.7525 -1.8625 3.4425 -3.5625 1.0625 C-2.5625 0.0625 -2.5625 0.0625 0 0 Z " fill="#9B9CA6" transform="translate(93.5625,23.9375)"/>
<path d="M0 0 C0.33 0.66 0.66 1.32 1 2 C0.67 2.66 0.34 3.32 0 4 C0.66 4 1.32 4 2 4 C2 4.99 2 5.98 2 7 C2.66 7 3.32 7 4 7 C3.34 8.32 2.68 9.64 2 11 C-0.6855594 8.3144406 -1.06049974 5.62378672 -2 2 C-1.34 1.34 -0.68 0.68 0 0 Z " fill="#C9ABAA" transform="translate(121,130)"/>
<path d="M0 0 C0.33 0 0.66 0 1 0 C1 4.29 1 8.58 1 13 C0.34 13 -0.32 13 -1 13 C-2.07310858 9.72814447 -1.89263102 7.57052408 -1.0625 4.25 C-0.86785156 3.45078125 -0.67320312 2.6515625 -0.47265625 1.828125 C-0.31667969 1.22484375 -0.16070312 0.6215625 0 0 Z " fill="#8A929D" transform="translate(149,93)"/>
<path d="M0 0 C0.99 0 1.98 0 3 0 C4.38671875 1.6796875 4.38671875 1.6796875 5.6875 3.875 C6.12449219 4.59429687 6.56148438 5.31359375 7.01171875 6.0546875 C8 8 8 8 8 10 C7.01 10 6.02 10 5 10 C3.33333333 6.66666667 1.66666667 3.33333333 0 0 Z " fill="#9F9CA4" transform="translate(104,49)"/>
<path d="M0 0 C0.33 0 0.66 0 1 0 C1.49230769 7.38461538 1.49230769 7.38461538 -1 10.5 C-1.66 10.995 -2.32 11.49 -3 12 C-2.49202991 7.6822542 -1.80317221 3.96697886 0 0 Z " fill="#353838" transform="translate(33,41)"/>
<path d="M0 0 C0.66 0 1.32 0 2 0 C2 2.31 2 4.62 2 7 C0.02 7.99 0.02 7.99 -2 9 C-1.125 1.125 -1.125 1.125 0 0 Z " fill="#3A312E" transform="translate(102,132)"/>
<path d="M0 0 C0.99 0 1.98 0 3 0 C2.25 7.625 2.25 7.625 0 11 C0 7.37 0 3.74 0 0 Z " fill="#C8A9A7" transform="translate(114,129)"/>
<path d="M0 0 C0.66 0.66 1.32 1.32 2 2 C0.02 4.97 0.02 4.97 -2 8 C-2.66 7.67 -3.32 7.34 -4 7 C-3.67 6.34 -3.34 5.68 -3 5 C-3.66 4.34 -4.32 3.68 -5 3 C-3.35 2.01 -1.7 1.02 0 0 Z " fill="#595657" transform="translate(36,98)"/>
<path d="M0 0 C3 0 3 0 5.0625 1.9375 C5.701875 2.618125 6.34125 3.29875 7 4 C7.66 4.33 8.32 4.66 9 5 C8.67 5.66 8.34 6.32 8 7 C4.5625 5.75 4.5625 5.75 1 4 C0.0625 1.8125 0.0625 1.8125 0 0 Z " fill="#A47564" transform="translate(62,32)"/>
<path d="M0 0 C0.33 0 0.66 0 1 0 C1 3.3 1 6.6 1 10 C0.01 10 -0.98 10 -2 10 C-2.1953125 3.9453125 -2.1953125 3.9453125 -2 2 C-1.34 1.34 -0.68 0.68 0 0 Z " fill="#785951" transform="translate(110,140)"/>
<path d="M0 0 C0.66 0.33 1.32 0.66 2 1 C1.67 2.32 1.34 3.64 1 5 C1.99 5.66 2.98 6.32 4 7 C1 8 1 8 -2 7 C-2 5.02 -2 3.04 -2 1 C-1.34 0.67 -0.68 0.34 0 0 Z " fill="#6B4B41" transform="translate(111,113)"/>
<path d="M0 0 C0.66 0.33 1.32 0.66 2 1 C2 2.65 2 4.3 2 6 C0.35 6.33 -1.3 6.66 -3 7 C-1.125 1.125 -1.125 1.125 0 0 Z " fill="#929CA7" transform="translate(12,103)"/>
<path d="M0 0 C0.66 0 1.32 0 2 0 C4.43160605 3.36683915 5 4.73350364 5 9 C4.34 9 3.68 9 3 9 C0 3.375 0 3.375 0 0 Z " fill="#454749" transform="translate(31,81)"/>
<path d="M0 0 C1.65 0 3.3 0 5 0 C5 1.98 5 3.96 5 6 C3.68 5.67 2.36 5.34 1 5 C0.67 3.35 0.34 1.7 0 0 Z " fill="#3B3431" transform="translate(101,80)"/>
<path d="M0 0 C-3.00950123 1.61725534 -5.97103608 2.67582623 -9.25 3.625 C-10.58804688 4.01558594 -10.58804688 4.01558594 -11.953125 4.4140625 C-12.62859375 4.60742188 -13.3040625 4.80078125 -14 5 C-13.67 4.01 -13.34 3.02 -13 2 C-8.56971812 0.34950283 -4.70949382 -0.22973141 0 0 Z " fill="#4C2F2A" transform="translate(70,73)"/>
<path d="M0 0 C0.66 0.33 1.32 0.66 2 1 C1.8125 3.375 1.8125 3.375 1 6 C-1.5625 7.3125 -1.5625 7.3125 -4 8 C-4 7.34 -4 6.68 -4 6 C-4.66 5.67 -5.32 5.34 -6 5 C-5.01 4.67 -4.02 4.34 -3 4 C-2.34 4.33 -1.68 4.66 -1 5 C-0.67 3.35 -0.34 1.7 0 0 Z " fill="#A46952" transform="translate(80,69)"/>
<path d="M0 0 C0.66 0.66 1.32 1.32 2 2 C1.625 4.125 1.625 4.125 1 6 C-0.65 6 -2.3 6 -4 6 C-4 5.01 -4 4.02 -4 3 C-2.68 2.67 -1.36 2.34 0 2 C0 1.34 0 0.68 0 0 Z " fill="#AF745C" transform="translate(78,68)"/>
<path d="M0 0 C-1.27514492 2.55028983 -2.40341297 2.93081711 -5 4 C-5.99 4 -6.98 4 -8 4 C-8.33 3.01 -8.66 2.02 -9 1 C-6.04335481 -0.4783226 -3.25770263 -0.06032783 0 0 Z " fill="#242627" transform="translate(76,47)"/>
<path d="M0 0 C2.64 0.33 5.28 0.66 8 1 C4.57653445 4.14958831 1.55737263 4.56179109 -3 5 C-2.01 3.35 -1.02 1.7 0 0 Z " fill="#6C4638" transform="translate(67,43)"/>
<path d="M0 0 C4.21422242 2.88341534 5.76075855 5.04303419 7 10 C5.29159719 8.36587557 4.06546953 7.13093906 3 5 C1.35857037 3.9590934 -0.30712215 2.95495674 -2 2 C-1.34 1.34 -0.68 0.68 0 0 Z " fill="#2B2C2A" transform="translate(85,26)"/>
<path d="M0 0 C0 0.99 0 1.98 0 3 C-2.64 3 -5.28 3 -8 3 C-7.67 2.01 -7.34 1.02 -7 0 C-4.3333581 -1.33332095 -2.83319697 -0.67102033 0 0 Z " fill="#363739" transform="translate(64,16)"/>
<path d="M0 0 C1.2065625 0.0309375 1.2065625 0.0309375 2.4375 0.0625 C-1.05337093 4.0667343 -3.21201939 5.68921065 -8.5625 6.0625 C-2.5625 0.0625 -2.5625 0.0625 0 0 Z " fill="#7D8089" transform="translate(58.5625,12.9375)"/>
<path d="M0 0 C0.33 0 0.66 0 1 0 C1.33951619 1.56116819 1.67132544 3.12401338 2 4.6875 C2.185625 5.55761719 2.37125 6.42773438 2.5625 7.32421875 C2.98972047 9.93712964 3.07616201 12.35813038 3 15 C0.03090402 11.72698081 -0.34354794 9.61934238 -0.1875 5.25 C-0.16042969 4.26515625 -0.13335937 3.2803125 -0.10546875 2.265625 C-0.07066406 1.51796875 -0.03585938 0.7703125 0 0 Z " fill="#5E3B30" transform="translate(82,55)"/>
<path d="M0 0 C0.99 0.33 1.98 0.66 3 1 C1.29374499 3.78388975 0.52373261 4.85384206 -2.6875 5.75 C-3.8321875 5.87375 -3.8321875 5.87375 -5 6 C-3.35 4.02 -1.7 2.04 0 0 Z " fill="#323030" transform="translate(91,107)"/>
<path d="M0 0 C0.66 0.99 1.32 1.98 2 3 C1 6 1 6 -1 8 C-2.0625 6.1875 -2.0625 6.1875 -3 4 C-2.67 3.01 -2.34 2.02 -2 1 C-1.67 1.33 -1.34 1.66 -1 2 C-0.67 1.34 -0.34 0.68 0 0 Z " fill="#9C7971" transform="translate(118,100)"/>
<path d="M0 0 C0.86625 0.2784375 0.86625 0.2784375 1.75 0.5625 C4.20692525 1.04023546 5.64397534 0.75729364 8 0 C7.67 1.32 7.34 2.64 7 4 C4.03 3.505 4.03 3.505 1 3 C0.67 2.01 0.34 1.02 0 0 Z " fill="#C9AFAF" transform="translate(117,96)"/>
<path d="M0 0 C0.66 0 1.32 0 2 0 C2.33 2.31 2.66 4.62 3 7 C1.68 6.67 0.36 6.34 -1 6 C-0.67 4.02 -0.34 2.04 0 0 Z " fill="#2E2E2E" transform="translate(38,93)"/>
<path d="M0 0 C2.475 0.99 2.475 0.99 5 2 C5 2.99 5 3.98 5 5 C6.32 5.66 7.64 6.32 9 7 C8.01 7.33 7.02 7.66 6 8 C5.34 7.34 4.68 6.68 4 6 C4 5.01 4 4.02 4 3 C3.01 3.33 2.02 3.66 1 4 C0.67 2.68 0.34 1.36 0 0 Z " fill="#AE7C68" transform="translate(55,49)"/>
<path d="M0 0 C0 0.66 0 1.32 0 2 C-5.94 1.01 -5.94 1.01 -12 0 C-12 -0.33 -12 -0.66 -12 -1 C-10.56465159 -1.2226746 -9.12654475 -1.42761906 -7.6875 -1.625 C-6.48673828 -1.79902344 -6.48673828 -1.79902344 -5.26171875 -1.9765625 C-3 -2 -3 -2 0 0 Z " fill="#898D97" transform="translate(75,12)"/>
<path d="M0 0 C0.99 0 1.98 0 3 0 C3 1.98 3 3.96 3 6 C2.01 6.33 1.02 6.66 0 7 C0 4.69 0 2.38 0 0 Z " fill="#5A6B74" transform="translate(16,0)"/>
<path d="M0 0 C0 2.31 0 4.62 0 7 C-0.99 7 -1.98 7 -3 7 C-3 5.02 -3 3.04 -3 1 C-1 0 -1 0 0 0 Z " fill="#A3898B" transform="translate(16,143)"/>
<path d="M0 0 C1.25541557 3.76624671 0.37061958 5.37188934 -1 9 C-1.66 9 -2.32 9 -3 9 C-2.25 2.25 -2.25 2.25 0 0 Z " fill="#8E6A68" transform="translate(19,133)"/>
<path d="M0 0 C0.66 0.33 1.32 0.66 2 1 C1.39816251 3.02045442 0.72693904 5.02111039 0 7 C-0.99 7.495 -0.99 7.495 -2 8 C-1.125 1.125 -1.125 1.125 0 0 Z " fill="#B18D8D" transform="translate(19,127)"/>
<path d="M0 0 C0.66 0.99 1.32 1.98 2 3 C0.69593116 5.01920337 -0.63823419 7.01924973 -2 9 C-2.33 9 -2.66 9 -3 9 C-3.26218749 5.85375007 -3.24754367 4.38162983 -1.5 1.6875 C-1.005 1.130625 -0.51 0.57375 0 0 Z " fill="#B79C9D" transform="translate(119,118)"/>
<path d="M0 0 C2 3 2 3 3 5 C3.99 5.33 4.98 5.66 6 6 C6 6.66 6 7.32 6 8 C4.02 8 2.04 8 0 8 C0 5.36 0 2.72 0 0 Z " fill="#5E4842" transform="translate(109,94)"/>
<path d="M0 0 C1.65 0 3.3 0 5 0 C3.25 3.875 3.25 3.875 1 5 C1 4.34 1 3.68 1 3 C0.34 3 -0.32 3 -1 3 C-0.67 2.01 -0.34 1.02 0 0 Z " fill="#B7807D" transform="translate(119,91)"/>
<path d="M0 0 C0.78375 0.04125 1.5675 0.0825 2.375 0.125 C2.705 1.445 3.035 2.765 3.375 4.125 C2.385 4.455 1.395 4.785 0.375 5.125 C0.375 4.135 0.375 3.145 0.375 2.125 C-1.275 2.125 -2.925 2.125 -4.625 2.125 C-2.625 0.125 -2.625 0.125 0 0 Z " fill="#AA7158" transform="translate(73.625,78.875)"/>
<path d="M0 0 C0.99 0.33 1.98 0.66 3 1 C2.67 1.66 2.34 2.32 2 3 C1.34 3 0.68 3 0 3 C-0.33 3.99 -0.66 4.98 -1 6 C-1.66 6 -2.32 6 -3 6 C-3.33 5.01 -3.66 4.02 -4 3 C-2.1875 1.4375 -2.1875 1.4375 0 0 Z " fill="#46362F" transform="translate(66,47)"/>
<path d="M0 0 C2.97 0 5.94 0 9 0 C9 0.66 9 1.32 9 2 C6.36 2.33 3.72 2.66 1 3 C0.67 2.01 0.34 1.02 0 0 Z " fill="#322E2C" transform="translate(41,49)"/>
<path d="M0 0 C0.33 0 0.66 0 1 0 C1 2.31 1 4.62 1 7 C-0.65 7 -2.3 7 -4 7 C-3.34 6.67 -2.68 6.34 -2 6 C-1.27306096 4.02111039 -0.60183749 2.02045442 0 0 Z " fill="#B17062" transform="translate(117,143)"/>
<path d="M0 0 C3 2 3 2 4 5 C4.03954234 7.33299825 4.04401732 9.66708189 4 12 C3.67 12 3.34 12 3 12 C1.82923301 8.01939223 0.74250597 4.08378283 0 0 Z " fill="#332925" transform="translate(84,62)"/>
<path d="M0 0 C2 2 2 2 2 6 C0.68 6 -0.64 6 -2 6 C-1.34 4.02 -0.68 2.04 0 0 Z " fill="#BD9A94" transform="translate(103,144)"/>
<path d="M0 0 C0.66 0 1.32 0 2 0 C2 0.66 2 1.32 2 2 C3.32 1.67 4.64 1.34 6 1 C6.33 2.32 6.66 3.64 7 5 C4.03824877 4.38722388 2.61941217 3.74627478 0 2 C0 1.34 0 0.68 0 0 Z " fill="#AFA5A1" transform="translate(123,82)"/>
<path d="M0 0 C1.65 0 3.3 0 5 0 C4.34 1.65 3.68 3.3 3 5 C2.01 5 1.02 5 0 5 C0 3.35 0 1.7 0 0 Z " fill="#8E8E9B" transform="translate(20,0)"/>
</svg>
