<svg xmlns:xlink="http://www.w3.org/1999/xlink" class="VQS2tmQ_zFyBOC2tkmto YIUegm7fh_CpJbivTu6B MnxxlQlR1H0xJuMEE8Yr PeR2JZ9BZHYIH8Ea3F36 bcsWqjK52oeyT6oeC2Az gZ3KuFw1JESHhOJhjT8j _Oyukq8JlN1X9w2FmPds XIIs8ZOri3wm8Wnj9N_y Lld6j9B1iilEqA6j31e4" fill="currentColor" viewBox="0 0 20 20" xmlns="http://www.w3.org/2000/svg" width="24"  height="24" ><path d="M9 2a1 1 0 000 2h2a1 1 0 100-2H9z" fill="#6B7280"></path><path fill-rule="evenodd" d="M4 5a2 2 0 012-2 3 3 0 003 3h2a3 3 0 003-3 2 2 0 012 2v11a2 2 0 01-2 2H6a2 2 0 01-2-2V5zm3 4a1 1 0 000 2h.01a1 1 0 100-2H7zm3 0a1 1 0 000 2h3a1 1 0 100-2h-3zm-3 4a1 1 0 100 2h.01a1 1 0 100-2H7zm3 0a1 1 0 100 2h3a1 1 0 100-2h-3z" clip-rule="evenodd" fill="#6B7280"></path></svg>