<svg class="rxe6apEJoEk8r75xaVNG ADSeKHR1DvUUA48Chci_ RpVwy4sO7Asb86CncKJ_ xLxy3movqzZW0DK9On8M" xmlns="http://www.w3.org/2000/svg" xmlns:xlink="http://www.w3.org/1999/xlink" viewBox="0 0 3900 3900" width="3900"  height="3900" ><defs><path id="a" d="M247 90l70.534 217.082-184.66-134.164h228.253L176.466 307.082z" fill="#FFFFFF"></path><path id="a" d="M247 90l70.534 217.082-184.66-134.164h228.253L176.466 307.082z" fill="#FFFFFF"></path><path id="a" d="M247 90l70.534 217.082-184.66-134.164h228.253L176.466 307.082z" fill="#FFFFFF"></path><path id="a" d="M247 90l70.534 217.082-184.66-134.164h228.253L176.466 307.082z" fill="#FFFFFF"></path><g id="b" fill="#FFFFFF"><path id="a" d="M247 90l70.534 217.082-184.66-134.164h228.253L176.466 307.082z" fill="#FFFFFF"></path><use xlink:href="#a" y="420" fill="#FFFFFF"></use><use xlink:href="#a" y="840" fill="#FFFFFF"></use><use xlink:href="#a" y="1260" fill="#FFFFFF"></use></g><g id="c" fill="#FFFFFF"><g id="e" fill="#FFFFFF"><g id="b" fill="#FFFFFF"><path id="a" d="M247 90l70.534 217.082-184.66-134.164h228.253L176.466 307.082z" fill="#FFFFFF"></path><use xlink:href="#a" y="420" fill="#FFFFFF"></use><use xlink:href="#a" y="840" fill="#FFFFFF"></use><use xlink:href="#a" y="1260" fill="#FFFFFF"></use></g><use xlink:href="#a" y="1680" fill="#FFFFFF"></use></g><use xlink:href="#b" x="247" y="210" fill="#FFFFFF"></use></g><g id="d" fill="#FFFFFF"><g id="c" fill="#FFFFFF"><g id="e" fill="#FFFFFF"><g id="b" fill="#FFFFFF"><path id="a" d="M247 90l70.534 217.082-184.66-134.164h228.253L176.466 307.082z" fill="#FFFFFF"></path><use xlink:href="#a" y="420" fill="#FFFFFF"></use><use xlink:href="#a" y="840" fill="#FFFFFF"></use><use xlink:href="#a" y="1260" fill="#FFFFFF"></use></g><use xlink:href="#a" y="1680" fill="#FFFFFF"></use></g><use xlink:href="#b" x="247" y="210" fill="#FFFFFF"></use></g><use xlink:href="#c" x="494" fill="#FFFFFF"></use></g><g id="c" fill="#FFFFFF"><g id="e" fill="#FFFFFF"><g id="b" fill="#FFFFFF"><path id="a" d="M247 90l70.534 217.082-184.66-134.164h228.253L176.466 307.082z" fill="#FFFFFF"></path><use xlink:href="#a" y="420" fill="#FFFFFF"></use><use xlink:href="#a" y="840" fill="#FFFFFF"></use><use xlink:href="#a" y="1260" fill="#FFFFFF"></use></g><use xlink:href="#a" y="1680" fill="#FFFFFF"></use></g><use xlink:href="#b" x="247" y="210" fill="#FFFFFF"></use></g><g id="e" fill="#FFFFFF"><g id="b" fill="#FFFFFF"><path id="a" d="M247 90l70.534 217.082-184.66-134.164h228.253L176.466 307.082z" fill="#FFFFFF"></path><use xlink:href="#a" y="420" fill="#FFFFFF"></use><use xlink:href="#a" y="840" fill="#FFFFFF"></use><use xlink:href="#a" y="1260" fill="#FFFFFF"></use></g><use xlink:href="#a" y="1680" fill="#FFFFFF"></use></g></defs><path fill="#B22234" d="M0 0h7410v3900H0z"></path><path d="M0 450h7410m0 600H0m0 600h7410m0 600H0m0 600h7410m0 600H0" stroke="#FFFFFF" stroke-width="300px"></path><path fill="#3C3B6E" d="M0 0h2964v2100H0z"></path><g fill="#FFFFFF"><g id="d" fill="#FFFFFF"><g id="c" fill="#FFFFFF"><g id="e" fill="#FFFFFF"><g id="b" fill="#FFFFFF"><path id="a" d="M247 90l70.534 217.082-184.66-134.164h228.253L176.466 307.082z" fill="#FFFFFF"></path><use xlink:href="#a" y="420" fill="#FFFFFF"></use><use xlink:href="#a" y="840" fill="#FFFFFF"></use><use xlink:href="#a" y="1260" fill="#FFFFFF"></use></g><use xlink:href="#a" y="1680" fill="#FFFFFF"></use></g><use xlink:href="#b" x="247" y="210" fill="#FFFFFF"></use></g><use xlink:href="#c" x="494" fill="#FFFFFF"></use></g><use xlink:href="#d" x="988" fill="#FFFFFF"></use><use xlink:href="#c" x="1976" fill="#FFFFFF"></use><use xlink:href="#e" x="2470" fill="#FFFFFF"></use></g></svg>