<svg xmlns:xlink="http://www.w3.org/1999/xlink" class="VQS2tmQ_zFyBOC2tkmto YIUegm7fh_CpJbivTu6B MnxxlQlR1H0xJuMEE8Yr PeR2JZ9BZHYIH8Ea3F36 bcsWqjK52oeyT6oeC2Az gZ3KuFw1JESHhOJhjT8j _Oyukq8JlN1X9w2FmPds XIIs8ZOri3wm8Wnj9N_y Lld6j9B1iilEqA6j31e4" fill="currentColor" viewBox="0 0 20 20" xmlns="http://www.w3.org/2000/svg" width="24"  height="24" ><path d="M8.707 7.293a1 1 0 00-1.414 1.414l2 2a1 1 0 001.414 0l2-2a1 1 0 00-1.414-1.414L11 7.586V3a1 1 0 10-2 0v4.586l-.293-.293z" fill="#6B7280"></path><path d="M3 5a2 2 0 012-2h1a1 1 0 010 2H5v7h2l1 2h4l1-2h2V5h-1a1 1 0 110-2h1a2 2 0 012 2v10a2 2 0 01-2 2H5a2 2 0 01-2-2V5z" fill="#6B7280"></path></svg>