<svg xmlns:xlink="http://www.w3.org/1999/xlink" class="VQS2tmQ_zFyBOC2tkmto YIUegm7fh_CpJbivTu6B MnxxlQlR1H0xJuMEE8Yr PeR2JZ9BZHYIH8Ea3F36 bcsWqjK52oeyT6oeC2Az gZ3KuFw1JESHhOJhjT8j _Oyukq8JlN1X9w2FmPds XIIs8ZOri3wm8Wnj9N_y Lld6j9B1iilEqA6j31e4" fill="currentColor" viewBox="0 0 20 20" xmlns="http://www.w3.org/2000/svg" width="24"  height="24" ><path d="M5 3a2 2 0 00-2 2v2a2 2 0 002 2h2a2 2 0 002-2V5a2 2 0 00-2-2H5zM5 11a2 2 0 00-2 2v2a2 2 0 002 2h2a2 2 0 002-2v-2a2 2 0 00-2-2H5zM11 5a2 2 0 012-2h2a2 2 0 012 2v2a2 2 0 01-2 2h-2a2 2 0 01-2-2V5zM11 13a2 2 0 012-2h2a2 2 0 012 2v2a2 2 0 01-2 2h-2a2 2 0 01-2-2v-2z" fill="#6B7280"></path></svg>