<svg xmlns:xlink="http://www.w3.org/1999/xlink" class="VQS2tmQ_zFyBOC2tkmto YIUegm7fh_CpJbivTu6B MnxxlQlR1H0xJuMEE8Yr PeR2JZ9BZHYIH8Ea3F36 bcsWqjK52oeyT6oeC2Az gZ3KuFw1JESHhOJhjT8j _Oyukq8JlN1X9w2FmPds XIIs8ZOri3wm8Wnj9N_y Lld6j9B1iilEqA6j31e4" fill="currentColor" viewBox="0 0 20 20" xmlns="http://www.w3.org/2000/svg" width="24"  height="24" ><path fill-rule="evenodd" d="M6 2a2 2 0 00-2 2v12a2 2 0 002 2h8a2 2 0 002-2V7.414A2 2 0 0015.414 6L12 2.586A2 2 0 0010.586 2H6zm2 10a1 1 0 10-2 0v3a1 1 0 102 0v-3zm2-3a1 1 0 011 1v5a1 1 0 11-2 0v-5a1 1 0 011-1zm4-1a1 1 0 10-2 0v7a1 1 0 102 0V8z" clip-rule="evenodd" fill="#6B7280"></path></svg>