<svg xmlns:xlink="http://www.w3.org/1999/xlink" class="VQS2tmQ_zFyBOC2tkmto YIUegm7fh_CpJbivTu6B MnxxlQlR1H0xJuMEE8Yr PeR2JZ9BZHYIH8Ea3F36 bcsWqjK52oeyT6oeC2Az gZ3KuFw1JESHhOJhjT8j _Oyukq8JlN1X9w2FmPds XIIs8ZOri3wm8Wnj9N_y Lld6j9B1iilEqA6j31e4" fill="currentColor" viewBox="0 0 20 20" xmlns="http://www.w3.org/2000/svg" width="24"  height="24" ><path d="M9 6a3 3 0 11-6 0 3 3 0 016 0zM17 6a3 3 0 11-6 0 3 3 0 016 0zM12.93 17c.046-.327.07-.66.07-1a6.97 6.97 0 00-1.5-4.33A5 5 0 0119 16v1h-6.07zM6 11a5 5 0 015 5v1H1v-1a5 5 0 015-5z" fill="#6B7280"></path></svg>